G04 start of page 6 for group -4063 idx -4063 *
G04 Title: (unknown), componentmask *
G04 Creator: pcb 4.3.0 *
G04 CreationDate: Wed Sep 14 15:56:16 2022 UTC *
G04 For: harkaitz *
G04 Format: Gerber/RS-274X *
G04 PCB-Dimensions (mm): 100.00 80.00 *
G04 PCB-Coordinate-Origin: lower left *
%MOMM*%
%FSLAX43Y43*%
%LNTOPMASK*%
%ADD29C,0.520*%
%ADD28C,1.700*%
%ADD27C,1.676*%
%ADD26C,0.002*%
G54D26*G36*
X4242Y42738D02*Y41062D01*
X5918D01*
Y42738D01*
X4242D01*
G37*
G54D27*X5080Y39360D03*
G54D26*G36*
X4242Y47818D02*Y46142D01*
X5918D01*
Y47818D01*
X4242D01*
G37*
G54D27*X5080Y44440D03*
G54D26*G36*
X4242Y32578D02*Y30902D01*
X5918D01*
Y32578D01*
X4242D01*
G37*
G54D27*X5080Y29200D03*
G54D26*G36*
X4242Y37658D02*Y35982D01*
X5918D01*
Y37658D01*
X4242D01*
G37*
G54D27*X5080Y34280D03*
G54D26*G36*
X4242Y52898D02*Y51222D01*
X5918D01*
Y52898D01*
X4242D01*
G37*
G54D27*X5080Y49520D03*
G54D26*G36*
X7864Y29466D02*Y28014D01*
X9916D01*
Y29466D01*
X7864D01*
G37*
G36*
Y32466D02*Y31014D01*
X9916D01*
Y32466D01*
X7864D01*
G37*
G36*
X8280Y37379D02*Y35245D01*
X12040D01*
Y37379D01*
X8280D01*
G37*
G36*
X13360Y29759D02*Y27625D01*
X17120D01*
Y29759D01*
X13360D01*
G37*
G36*
Y34077D02*Y31943D01*
X17120D01*
Y34077D01*
X13360D01*
G37*
G36*
Y37379D02*Y35245D01*
X17120D01*
Y37379D01*
X13360D01*
G37*
G54D28*X20810Y29680D02*X24910D01*
G54D26*G36*
X19960Y35130D02*Y33430D01*
X25760D01*
Y35130D01*
X19960D01*
G37*
G36*
X19000Y40535D02*Y40015D01*
X20040D01*
Y40535D01*
X19000D01*
G37*
G36*
X23150D02*Y40015D01*
X24200D01*
Y40535D01*
X23150D01*
G37*
G54D29*X19260Y43525D02*X19780D01*
G54D26*G36*
X19000Y43135D02*Y42615D01*
X20040D01*
Y43135D01*
X19000D01*
G37*
G36*
Y42485D02*Y41965D01*
X20040D01*
Y42485D01*
X19000D01*
G37*
G36*
Y41835D02*Y41315D01*
X20040D01*
Y41835D01*
X19000D01*
G37*
G36*
Y41185D02*Y40665D01*
X20040D01*
Y41185D01*
X19000D01*
G37*
G36*
X22465Y43380D02*X20715D01*
Y40420D01*
X22465D01*
Y43380D01*
G37*
G36*
X23150Y41185D02*Y40665D01*
X24200D01*
Y41185D01*
X23150D01*
G37*
G36*
X25136Y41102D02*Y39650D01*
X27188D01*
Y41102D01*
X25136D01*
G37*
G36*
X27978Y42014D02*Y40566D01*
X29934D01*
Y42014D01*
X27978D01*
G37*
G36*
X23150Y41835D02*Y41315D01*
X24200D01*
Y41835D01*
X23150D01*
G37*
G36*
Y42485D02*Y41965D01*
X24200D01*
Y42485D01*
X23150D01*
G37*
G36*
X25136Y44102D02*Y42650D01*
X27188D01*
Y44102D01*
X25136D01*
G37*
G36*
X27978Y43894D02*Y42446D01*
X29934D01*
Y43894D01*
X27978D01*
G37*
G36*
X23150Y43135D02*Y42615D01*
X24200D01*
Y43135D01*
X23150D01*
G37*
G36*
Y43785D02*Y43265D01*
X24200D01*
Y43785D01*
X23150D01*
G37*
G36*
X21834Y47706D02*Y46254D01*
X23886D01*
Y47706D01*
X21834D01*
G37*
G36*
Y50706D02*Y49254D01*
X23886D01*
Y50706D01*
X21834D01*
G37*
G36*
X8280Y41697D02*Y39563D01*
X12040D01*
Y41697D01*
X8280D01*
G37*
G36*
Y43729D02*Y41595D01*
X12040D01*
Y43729D01*
X8280D01*
G37*
G36*
Y48047D02*Y45913D01*
X12040D01*
Y48047D01*
X8280D01*
G37*
G36*
X13360Y41697D02*Y39563D01*
X17120D01*
Y41697D01*
X13360D01*
G37*
G36*
Y43729D02*Y41595D01*
X17120D01*
Y43729D01*
X13360D01*
G37*
G36*
Y48047D02*Y45913D01*
X17120D01*
Y48047D01*
X13360D01*
G37*
G36*
X12755Y53785D02*X10105D01*
Y50335D01*
X12755D01*
Y53785D01*
G37*
G36*
X19555D02*X16905D01*
Y50335D01*
X19555D01*
Y53785D01*
G37*
M02*
