G04 start of page 10 for group -3984 idx -3984 *
G04 Title: (unknown), fab *
G04 Creator: pcb 4.3.0 *
G04 CreationDate: Sat Jul 16 16:42:15 2022 UTC *
G04 For: harkaitz *
G04 Format: Gerber/RS-274X *
G04 PCB-Dimensions (mm): 100.00 80.00 *
G04 PCB-Coordinate-Origin: lower left *
%MOMM*%
%FSLAX43Y43*%
%LNFAB*%
%ADD46C,0.254*%
%ADD45C,0.191*%
%ADD44C,0.152*%
%ADD43R,0.203X0.203*%
G54D43*X5080Y29606D02*Y28794D01*
X4674Y29200D02*X5486D01*
X3810Y90884D02*Y90071D01*
X3404Y90478D02*X4216D01*
G54D44*X34290Y91049D02*X34671Y90287D01*
X35052Y91049D01*
X34671Y90287D02*Y89525D01*
X35509Y90363D02*X36081D01*
X35509Y89525D02*X36271D01*
X35509Y91049D02*Y89525D01*
Y91049D02*X36271D01*
X37490D02*X37681Y90858D01*
X36919Y91049D02*X37490D01*
X36728Y90858D02*X36919Y91049D01*
X36728Y90858D02*Y90478D01*
X36919Y90287D01*
X37490D01*
X37681Y90096D01*
Y89716D01*
X37490Y89525D02*X37681Y89716D01*
X36919Y89525D02*X37490D01*
X36728Y89716D02*X36919Y89525D01*
X24892Y90744D02*X25197Y91049D01*
Y89525D01*
X24892D02*X25464D01*
X11430Y89716D02*X11620Y89525D01*
X11430Y90858D02*Y89716D01*
Y90858D02*X11620Y91049D01*
X12002D01*
X12192Y90858D01*
Y89716D01*
X12002Y89525D02*X12192Y89716D01*
X11620Y89525D02*X12002D01*
X11430Y89906D02*X12192Y90668D01*
X12649Y89525D02*X12840D01*
X13297Y89716D02*X13487Y89525D01*
X13297Y90858D02*Y89716D01*
Y90858D02*X13487Y91049D01*
X13868D01*
X14059Y90858D01*
Y89716D01*
X13868Y89525D02*X14059Y89716D01*
X13487Y89525D02*X13868D01*
X13297Y89906D02*X14059Y90668D01*
X14516Y90858D02*X14707Y91049D01*
X15088D01*
X15278Y90858D01*
X15088Y89525D02*X15278Y89716D01*
X14707Y89525D02*X15088D01*
X14516Y89716D02*X14707Y89525D01*
Y90363D02*X15088D01*
X15278Y90858D02*Y90554D01*
Y90173D02*Y89716D01*
Y90173D02*X15088Y90363D01*
X15278Y90554D02*X15088Y90363D01*
X15735Y89716D02*X15926Y89525D01*
X15735Y90020D02*Y89716D01*
Y90020D02*X16002Y90287D01*
X16231D01*
X16497Y90020D01*
Y89716D01*
X16307Y89525D02*X16497Y89716D01*
X15926Y89525D02*X16307D01*
X15735Y90554D02*X16002Y90287D01*
X15735Y90858D02*Y90554D01*
Y90858D02*X15926Y91049D01*
X16307D01*
X16497Y90858D01*
Y90554D01*
X16231Y90287D02*X16497Y90554D01*
X5080Y31740D02*Y31334D01*
Y31740D02*X5432Y31943D01*
X5080Y31740D02*X4728Y31943D01*
X5080Y36820D02*Y36414D01*
Y36820D02*X5432Y37023D01*
X5080Y36820D02*X4728Y37023D01*
X5080Y34280D02*Y33874D01*
Y34280D02*X5432Y34483D01*
X5080Y34280D02*X4728Y34483D01*
X5080Y41900D02*Y41494D01*
Y41900D02*X5432Y42103D01*
X5080Y41900D02*X4728Y42103D01*
X5080Y39360D02*Y38954D01*
Y39360D02*X5432Y39563D01*
X5080Y39360D02*X4728Y39563D01*
X5080Y46980D02*Y46574D01*
Y46980D02*X5432Y47183D01*
X5080Y46980D02*X4728Y47183D01*
X5080Y44440D02*Y44034D01*
Y44440D02*X5432Y44643D01*
X5080Y44440D02*X4728Y44643D01*
X5080Y52060D02*Y51654D01*
Y52060D02*X5432Y52263D01*
X5080Y52060D02*X4728Y52263D01*
X5080Y49520D02*Y49114D01*
Y49520D02*X5432Y49723D01*
X5080Y49520D02*X4728Y49723D01*
X3810Y94288D02*Y93881D01*
Y94288D02*X4162Y94491D01*
X3810Y94288D02*X3458Y94491D01*
X34290Y94859D02*X34671Y94097D01*
X35052Y94859D01*
X34671Y94097D02*Y93335D01*
X35509Y94173D02*X36081D01*
X35509Y93335D02*X36271D01*
X35509Y94859D02*Y93335D01*
Y94859D02*X36271D01*
X37490D02*X37681Y94668D01*
X36919Y94859D02*X37490D01*
X36728Y94668D02*X36919Y94859D01*
X36728Y94668D02*Y94288D01*
X36919Y94097D01*
X37490D01*
X37681Y93906D01*
Y93526D01*
X37490Y93335D02*X37681Y93526D01*
X36919Y93335D02*X37490D01*
X36728Y93526D02*X36919Y93335D01*
X25082D02*X25654Y94097D01*
Y94668D02*Y94097D01*
X25464Y94859D02*X25654Y94668D01*
X25082Y94859D02*X25464D01*
X24892Y94668D02*X25082Y94859D01*
X24892Y94668D02*Y94288D01*
X25082Y94097D01*
X25654D01*
X11430Y93526D02*X11620Y93335D01*
X11430Y94668D02*Y93526D01*
Y94668D02*X11620Y94859D01*
X12002D01*
X12192Y94668D01*
Y93526D01*
X12002Y93335D02*X12192Y93526D01*
X11620Y93335D02*X12002D01*
X11430Y93716D02*X12192Y94478D01*
X12649Y93335D02*X12840D01*
X13297Y93526D02*X13487Y93335D01*
X13297Y94668D02*Y93526D01*
Y94668D02*X13487Y94859D01*
X13868D01*
X14059Y94668D01*
Y93526D01*
X13868Y93335D02*X14059Y93526D01*
X13487Y93335D02*X13868D01*
X13297Y93716D02*X14059Y94478D01*
X14516Y94668D02*X14707Y94859D01*
X15278D01*
X15469Y94668D01*
Y94288D01*
X14516Y93335D02*X15469Y94288D01*
X14516Y93335D02*X15469D01*
X15926Y93526D02*X16116Y93335D01*
X15926Y93830D02*Y93526D01*
Y93830D02*X16193Y94097D01*
X16421D01*
X16688Y93830D01*
Y93526D01*
X16497Y93335D02*X16688Y93526D01*
X16116Y93335D02*X16497D01*
X15926Y94364D02*X16193Y94097D01*
X15926Y94668D02*Y94364D01*
Y94668D02*X16116Y94859D01*
X16497D01*
X16688Y94668D01*
Y94364D01*
X16421Y94097D02*X16688Y94364D01*
X762Y98669D02*X952Y98478D01*
X190Y98669D02*X762D01*
X0Y98478D02*X190Y98669D01*
X0Y98478D02*Y98098D01*
X190Y97907D01*
X762D01*
X952Y97716D01*
Y97336D01*
X762Y97145D02*X952Y97336D01*
X190Y97145D02*X762D01*
X0Y97336D02*X190Y97145D01*
X1410Y97907D02*Y97336D01*
X1600Y97145D01*
X2172Y97907D02*Y96764D01*
X1981Y96574D02*X2172Y96764D01*
X1600Y96574D02*X1981D01*
X1410Y96764D02*X1600Y96574D01*
Y97145D02*X1981D01*
X2172Y97336D01*
X2819Y97716D02*Y97145D01*
Y97716D02*X3010Y97907D01*
X3200D01*
X3391Y97716D01*
Y97145D01*
Y97716D02*X3581Y97907D01*
X3772D01*
X3962Y97716D01*
Y97145D01*
X2629Y97907D02*X2819Y97716D01*
X4420Y98669D02*Y97145D01*
Y97336D02*X4610Y97145D01*
X4991D01*
X5182Y97336D01*
Y97716D02*Y97336D01*
X4991Y97907D02*X5182Y97716D01*
X4610Y97907D02*X4991D01*
X4420Y97716D02*X4610Y97907D01*
X5639Y97716D02*Y97336D01*
Y97716D02*X5829Y97907D01*
X6210D01*
X6401Y97716D01*
Y97336D01*
X6210Y97145D02*X6401Y97336D01*
X5829Y97145D02*X6210D01*
X5639Y97336D02*X5829Y97145D01*
X6858Y98669D02*Y97336D01*
X7049Y97145D01*
X0Y96319D02*X7430D01*
X10604Y98669D02*Y97145D01*
X11100Y98669D02*X11366Y98402D01*
Y97412D01*
X11100Y97145D02*X11366Y97412D01*
X10414Y97145D02*X11100D01*
X10414Y98669D02*X11100D01*
G54D45*X11824Y98288D02*Y98250D01*
G54D44*Y97716D02*Y97145D01*
X12776Y97907D02*X12967Y97716D01*
X12395Y97907D02*X12776D01*
X12205Y97716D02*X12395Y97907D01*
X12205Y97716D02*Y97336D01*
X12395Y97145D01*
X12967Y97907D02*Y97336D01*
X13157Y97145D01*
X12395D02*X12776D01*
X12967Y97336D01*
X13805Y97716D02*Y97145D01*
Y97716D02*X13995Y97907D01*
X14186D01*
X14376Y97716D01*
Y97145D01*
Y97716D02*X14567Y97907D01*
X14757D01*
X14948Y97716D01*
Y97145D01*
X13614Y97907D02*X13805Y97716D01*
X15405Y97145D02*X15596D01*
X16739Y97336D02*X16929Y97145D01*
X16739Y98478D02*X16929Y98669D01*
X16739Y98478D02*Y97336D01*
X17386Y98669D02*X17767D01*
X17577D02*Y97145D01*
X17386D02*X17767D01*
X18415Y97716D02*Y97145D01*
Y97716D02*X18606Y97907D01*
X18796D01*
X18987Y97716D01*
Y97145D01*
X18225Y97907D02*X18415Y97716D01*
X19634Y97907D02*X20206D01*
X19444Y97716D02*X19634Y97907D01*
X19444Y97716D02*Y97336D01*
X19634Y97145D01*
X20206D01*
X20663Y98669D02*Y97145D01*
Y97716D02*X20853Y97907D01*
X21234D01*
X21425Y97716D01*
Y97145D01*
X21882Y98669D02*X22073Y98478D01*
Y97336D01*
X21882Y97145D02*X22073Y97336D01*
X10414Y96319D02*X22530D01*
X24397Y97145D02*X24892D01*
X24130Y97412D02*X24397Y97145D01*
X24130Y98402D02*Y97412D01*
Y98402D02*X24397Y98669D01*
X24892D01*
X25349Y97716D02*Y97336D01*
Y97716D02*X25540Y97907D01*
X25921D01*
X26111Y97716D01*
Y97336D01*
X25921Y97145D02*X26111Y97336D01*
X25540Y97145D02*X25921D01*
X25349Y97336D02*X25540Y97145D01*
X26568Y97907D02*Y97336D01*
X26759Y97145D01*
X27140D01*
X27330Y97336D01*
Y97907D02*Y97336D01*
X27978Y97716D02*Y97145D01*
Y97716D02*X28169Y97907D01*
X28359D01*
X28550Y97716D01*
Y97145D01*
X27788Y97907D02*X27978Y97716D01*
X29197Y98669D02*Y97336D01*
X29388Y97145D01*
X29007Y98098D02*X29388D01*
X24130Y96319D02*X29769D01*
X33210Y98669D02*Y97145D01*
X33020Y98669D02*X33782D01*
X33972Y98478D01*
Y98098D01*
X33782Y97907D02*X33972Y98098D01*
X33210Y97907D02*X33782D01*
X34430Y98669D02*Y97336D01*
X34620Y97145D01*
X35573Y97907D02*X35763Y97716D01*
X35192Y97907D02*X35573D01*
X35001Y97716D02*X35192Y97907D01*
X35001Y97716D02*Y97336D01*
X35192Y97145D01*
X35763Y97907D02*Y97336D01*
X35954Y97145D01*
X35192D02*X35573D01*
X35763Y97336D01*
X36601Y98669D02*Y97336D01*
X36792Y97145D01*
X36411Y98098D02*X36792D01*
X37363Y97145D02*X37935D01*
X37173Y97336D02*X37363Y97145D01*
X37173Y97716D02*Y97336D01*
Y97716D02*X37363Y97907D01*
X37744D01*
X37935Y97716D01*
X37173Y97526D02*X37935D01*
Y97716D02*Y97526D01*
X39154Y98669D02*Y97145D01*
X38964D02*X39154Y97336D01*
X38583Y97145D02*X38964D01*
X38392Y97336D02*X38583Y97145D01*
X38392Y97716D02*Y97336D01*
Y97716D02*X38583Y97907D01*
X38964D01*
X39154Y97716D01*
X39992Y97907D02*Y97716D01*
Y97336D02*Y97145D01*
X39611Y98478D02*Y98288D01*
Y98478D02*X39802Y98669D01*
X40183D01*
X40373Y98478D01*
Y98288D01*
X39992Y97907D02*X40373Y98288D01*
X33020Y96319D02*X40831D01*
X0Y102479D02*X762D01*
X381D02*Y100955D01*
X1219Y102479D02*Y100955D01*
Y101526D02*X1410Y101717D01*
X1791D01*
X1981Y101526D01*
Y100955D01*
X2629D02*X3200D01*
X2438Y101146D02*X2629Y100955D01*
X2438Y101526D02*Y101146D01*
Y101526D02*X2629Y101717D01*
X3010D01*
X3200Y101526D01*
X2438Y101336D02*X3200D01*
Y101526D02*Y101336D01*
X3848Y101526D02*Y100955D01*
Y101526D02*X4039Y101717D01*
X4420D01*
X3658D02*X3848Y101526D01*
X5067Y100955D02*X5639D01*
X4877Y101146D02*X5067Y100955D01*
X4877Y101526D02*Y101146D01*
Y101526D02*X5067Y101717D01*
X5448D01*
X5639Y101526D01*
X4877Y101336D02*X5639D01*
Y101526D02*Y101336D01*
X7353Y101717D02*X7544Y101526D01*
X6972Y101717D02*X7353D01*
X6782Y101526D02*X6972Y101717D01*
X6782Y101526D02*Y101146D01*
X6972Y100955D01*
X7544Y101717D02*Y101146D01*
X7734Y100955D01*
X6972D02*X7353D01*
X7544Y101146D01*
X8382Y101526D02*Y100955D01*
Y101526D02*X8573Y101717D01*
X8954D01*
X8192D02*X8382Y101526D01*
X9601Y100955D02*X10173D01*
X9411Y101146D02*X9601Y100955D01*
X9411Y101526D02*Y101146D01*
Y101526D02*X9601Y101717D01*
X9982D01*
X10173Y101526D01*
X9411Y101336D02*X10173D01*
Y101526D02*Y101336D01*
X11316Y102288D02*X11506Y102479D01*
X12078D01*
X12268Y102288D01*
Y101908D01*
X11316Y100955D02*X12268Y101908D01*
X11316Y100955D02*X12268D01*
X14173Y102479D02*Y100955D01*
X13983D02*X14173Y101146D01*
X13602Y100955D02*X13983D01*
X13411Y101146D02*X13602Y100955D01*
X13411Y101526D02*Y101146D01*
Y101526D02*X13602Y101717D01*
X13983D01*
X14173Y101526D01*
G54D45*X14630Y102098D02*Y102060D01*
G54D44*Y101526D02*Y100955D01*
X15202Y102288D02*Y100955D01*
Y102288D02*X15392Y102479D01*
X15583D01*
X15011Y101717D02*X15392D01*
X16154Y102288D02*Y100955D01*
Y102288D02*X16345Y102479D01*
X16535D01*
X15964Y101717D02*X16345D01*
X17107Y100955D02*X17678D01*
X16916Y101146D02*X17107Y100955D01*
X16916Y101526D02*Y101146D01*
Y101526D02*X17107Y101717D01*
X17488D01*
X17678Y101526D01*
X16916Y101336D02*X17678D01*
Y101526D02*Y101336D01*
X18326Y101526D02*Y100955D01*
Y101526D02*X18517Y101717D01*
X18898D01*
X18136D02*X18326Y101526D01*
X19545Y100955D02*X20117D01*
X19355Y101146D02*X19545Y100955D01*
X19355Y101526D02*Y101146D01*
Y101526D02*X19545Y101717D01*
X19926D01*
X20117Y101526D01*
X19355Y101336D02*X20117D01*
Y101526D02*Y101336D01*
X20765Y101526D02*Y100955D01*
Y101526D02*X20955Y101717D01*
X21146D01*
X21336Y101526D01*
Y100955D01*
X20574Y101717D02*X20765Y101526D01*
X21984Y102479D02*Y101146D01*
X22174Y100955D01*
X21793Y101908D02*X22174D01*
X24003Y102479D02*Y100955D01*
X23813D02*X24003Y101146D01*
X23432Y100955D02*X23813D01*
X23241Y101146D02*X23432Y100955D01*
X23241Y101526D02*Y101146D01*
Y101526D02*X23432Y101717D01*
X23813D01*
X24003Y101526D01*
X24651D02*Y100955D01*
Y101526D02*X24841Y101717D01*
X25222D01*
X24460D02*X24651Y101526D01*
G54D45*X25679Y102098D02*Y102060D01*
G54D44*Y101526D02*Y100955D01*
X26060Y102479D02*Y101146D01*
X26251Y100955D01*
X26632Y102479D02*Y101146D01*
X26822Y100955D01*
X28080D02*X28651D01*
X28842Y101146D01*
X28651Y101336D02*X28842Y101146D01*
X28080Y101336D02*X28651D01*
X27889Y101526D02*X28080Y101336D01*
X27889Y101526D02*X28080Y101717D01*
X28651D01*
X28842Y101526D01*
X27889Y101146D02*X28080Y100955D01*
G54D45*X29299Y102098D02*Y102060D01*
G54D44*Y101526D02*Y100955D01*
X29680Y101717D02*X30442D01*
X29680Y100955D02*X30442Y101717D01*
X29680Y100955D02*X30442D01*
X31090D02*X31661D01*
X30899Y101146D02*X31090Y100955D01*
X30899Y101526D02*Y101146D01*
Y101526D02*X31090Y101717D01*
X31471D01*
X31661Y101526D01*
X30899Y101336D02*X31661D01*
Y101526D02*Y101336D01*
X32309Y100955D02*X32880D01*
X33071Y101146D01*
X32880Y101336D02*X33071Y101146D01*
X32309Y101336D02*X32880D01*
X32118Y101526D02*X32309Y101336D01*
X32118Y101526D02*X32309Y101717D01*
X32880D01*
X33071Y101526D01*
X32118Y101146D02*X32309Y100955D01*
X34214Y101717D02*Y101146D01*
X34404Y100955D01*
X34785D01*
X34976Y101146D01*
Y101717D02*Y101146D01*
X35624Y100955D02*X36195D01*
X36386Y101146D01*
X36195Y101336D02*X36386Y101146D01*
X35624Y101336D02*X36195D01*
X35433Y101526D02*X35624Y101336D01*
X35433Y101526D02*X35624Y101717D01*
X36195D01*
X36386Y101526D01*
X35433Y101146D02*X35624Y100955D01*
X37033D02*X37605D01*
X36843Y101146D02*X37033Y100955D01*
X36843Y101526D02*Y101146D01*
Y101526D02*X37033Y101717D01*
X37414D01*
X37605Y101526D01*
X36843Y101336D02*X37605D01*
Y101526D02*Y101336D01*
X38824Y102479D02*Y100955D01*
X38633D02*X38824Y101146D01*
X38252Y100955D02*X38633D01*
X38062Y101146D02*X38252Y100955D01*
X38062Y101526D02*Y101146D01*
Y101526D02*X38252Y101717D01*
X38633D01*
X38824Y101526D01*
G54D45*X39967Y102098D02*Y102060D01*
G54D44*Y101526D02*Y100955D01*
X40538Y101526D02*Y100955D01*
Y101526D02*X40729Y101717D01*
X40919D01*
X41110Y101526D01*
Y100955D01*
X40348Y101717D02*X40538Y101526D01*
X42443Y102479D02*Y101146D01*
X42634Y100955D01*
X42253Y101908D02*X42634D01*
X43015Y102479D02*Y100955D01*
Y101526D02*X43205Y101717D01*
X43586D01*
X43777Y101526D01*
Y100955D01*
G54D45*X44234Y102098D02*Y102060D01*
G54D44*Y101526D02*Y100955D01*
X44806D02*X45377D01*
X45568Y101146D01*
X45377Y101336D02*X45568Y101146D01*
X44806Y101336D02*X45377D01*
X44615Y101526D02*X44806Y101336D01*
X44615Y101526D02*X44806Y101717D01*
X45377D01*
X45568Y101526D01*
X44615Y101146D02*X44806Y100955D01*
X46711Y102479D02*Y101146D01*
X46901Y100955D01*
X47854Y101717D02*X48044Y101526D01*
X47473Y101717D02*X47854D01*
X47282Y101526D02*X47473Y101717D01*
X47282Y101526D02*Y101146D01*
X47473Y100955D01*
X48044Y101717D02*Y101146D01*
X48235Y100955D01*
X47473D02*X47854D01*
X48044Y101146D01*
X48692Y101717D02*Y101146D01*
X48882Y100955D01*
X49454Y101717D02*Y100574D01*
X49263Y100384D02*X49454Y100574D01*
X48882Y100384D02*X49263D01*
X48692Y100574D02*X48882Y100384D01*
Y100955D02*X49263D01*
X49454Y101146D01*
X49911Y101526D02*Y101146D01*
Y101526D02*X50102Y101717D01*
X50483D01*
X50673Y101526D01*
Y101146D01*
X50483Y100955D02*X50673Y101146D01*
X50102Y100955D02*X50483D01*
X49911Y101146D02*X50102Y100955D01*
X51130Y101717D02*Y101146D01*
X51321Y100955D01*
X51702D01*
X51892Y101146D01*
Y101717D02*Y101146D01*
X52540Y102479D02*Y101146D01*
X52730Y100955D01*
X52349Y101908D02*X52730D01*
X53111Y100574D02*X53492Y100955D01*
X54635Y102174D02*X54940Y102479D01*
Y100955D01*
X54635D02*X55207D01*
X55664Y101146D02*X55855Y100955D01*
X55664Y102288D02*Y101146D01*
Y102288D02*X55855Y102479D01*
X56236D01*
X56426Y102288D01*
Y101146D01*
X56236Y100955D02*X56426Y101146D01*
X55855Y100955D02*X56236D01*
X55664Y101336D02*X56426Y102098D01*
X57569Y102479D02*Y100955D01*
Y101526D02*X57760Y101717D01*
X58141D01*
X58331Y101526D01*
Y100955D01*
X58788Y101526D02*Y101146D01*
Y101526D02*X58979Y101717D01*
X59360D01*
X59550Y101526D01*
Y101146D01*
X59360Y100955D02*X59550Y101146D01*
X58979Y100955D02*X59360D01*
X58788Y101146D02*X58979Y100955D01*
X60008Y102479D02*Y101146D01*
X60198Y100955D01*
X60770D02*X61341D01*
X60579Y101146D02*X60770Y100955D01*
X60579Y101526D02*Y101146D01*
Y101526D02*X60770Y101717D01*
X61151D01*
X61341Y101526D01*
X60579Y101336D02*X61341D01*
Y101526D02*Y101336D01*
X61989Y100955D02*X62560D01*
X62751Y101146D01*
X62560Y101336D02*X62751Y101146D01*
X61989Y101336D02*X62560D01*
X61798Y101526D02*X61989Y101336D01*
X61798Y101526D02*X61989Y101717D01*
X62560D01*
X62751Y101526D01*
X61798Y101146D02*X61989Y100955D01*
X64084Y102479D02*Y101146D01*
X64275Y100955D01*
X63894Y101908D02*X64275D01*
X64656Y101526D02*Y101146D01*
Y101526D02*X64846Y101717D01*
X65227D01*
X65418Y101526D01*
Y101146D01*
X65227Y100955D02*X65418Y101146D01*
X64846Y100955D02*X65227D01*
X64656Y101146D02*X64846Y100955D01*
X66065Y102479D02*Y101146D01*
X66256Y100955D01*
X65875Y101908D02*X66256D01*
X67208Y101717D02*X67399Y101526D01*
X66827Y101717D02*X67208D01*
X66637Y101526D02*X66827Y101717D01*
X66637Y101526D02*Y101146D01*
X66827Y100955D01*
X67399Y101717D02*Y101146D01*
X67589Y100955D01*
X66827D02*X67208D01*
X67399Y101146D01*
X68047Y102479D02*Y101146D01*
X68237Y100955D01*
G54D46*X31000Y27000D02*X1000D01*
Y57000D01*
X31000D01*
X31250Y57250D01*
Y27250D01*
X31000Y27000D01*
G54D44*X28073Y-2413D02*X28835D01*
X29026Y-2222D01*
Y-1765D02*Y-2222D01*
X28835Y-1575D02*X29026Y-1765D01*
X28264Y-1575D02*X28835D01*
X28264Y-889D02*Y-2413D01*
X28073Y-889D02*X28835D01*
X29026Y-1080D01*
Y-1384D01*
X28835Y-1575D02*X29026Y-1384D01*
X29483Y-1842D02*Y-2222D01*
Y-1842D02*X29674Y-1651D01*
X30055D01*
X30245Y-1842D01*
Y-2222D01*
X30055Y-2413D02*X30245Y-2222D01*
X29674Y-2413D02*X30055D01*
X29483Y-2222D02*X29674Y-2413D01*
X31274Y-1651D02*X31464Y-1842D01*
X30893Y-1651D02*X31274D01*
X30702Y-1842D02*X30893Y-1651D01*
X30702Y-1842D02*Y-2222D01*
X30893Y-2413D01*
X31464Y-1651D02*Y-2222D01*
X31655Y-2413D01*
X30893D02*X31274D01*
X31464Y-2222D01*
X32303Y-1842D02*Y-2413D01*
Y-1842D02*X32493Y-1651D01*
X32874D01*
X32112D02*X32303Y-1842D01*
X34093Y-889D02*Y-2413D01*
X33903D02*X34093Y-2222D01*
X33522Y-2413D02*X33903D01*
X33331Y-2222D02*X33522Y-2413D01*
X33331Y-1842D02*Y-2222D01*
Y-1842D02*X33522Y-1651D01*
X33903D01*
X34093Y-1842D01*
X35236D02*Y-2222D01*
Y-1842D02*X35427Y-1651D01*
X35808D01*
X35998Y-1842D01*
Y-2222D01*
X35808Y-2413D02*X35998Y-2222D01*
X35427Y-2413D02*X35808D01*
X35236Y-2222D02*X35427Y-2413D01*
X36455Y-1651D02*Y-2222D01*
X36646Y-2413D01*
X37027D01*
X37217Y-2222D01*
Y-1651D02*Y-2222D01*
X37865Y-889D02*Y-2222D01*
X38056Y-2413D01*
X37675Y-1460D02*X38056D01*
X38437Y-889D02*Y-2222D01*
X38627Y-2413D01*
G54D45*X39008Y-1270D02*Y-1308D01*
G54D44*Y-1842D02*Y-2413D01*
X39580Y-1842D02*Y-2413D01*
Y-1842D02*X39770Y-1651D01*
X39961D01*
X40151Y-1842D01*
Y-2413D01*
X39389Y-1651D02*X39580Y-1842D01*
X40799Y-2413D02*X41370D01*
X40608Y-2222D02*X40799Y-2413D01*
X40608Y-1842D02*Y-2222D01*
Y-1842D02*X40799Y-1651D01*
X41180D01*
X41370Y-1842D01*
X40608Y-2032D02*X41370D01*
Y-1842D02*Y-2032D01*
G54D45*X42513Y-1270D02*Y-1308D01*
G54D44*Y-1842D02*Y-2413D01*
X43085D02*X43656D01*
X43847Y-2222D01*
X43656Y-2032D02*X43847Y-2222D01*
X43085Y-2032D02*X43656D01*
X42894Y-1842D02*X43085Y-2032D01*
X42894Y-1842D02*X43085Y-1651D01*
X43656D01*
X43847Y-1842D01*
X42894Y-2222D02*X43085Y-2413D01*
X45180Y-889D02*Y-2222D01*
X45371Y-2413D01*
X44990Y-1460D02*X45371D01*
X45752Y-889D02*Y-2413D01*
Y-1842D02*X45942Y-1651D01*
X46323D01*
X46514Y-1842D01*
Y-2413D01*
X47162D02*X47733D01*
X46971Y-2222D02*X47162Y-2413D01*
X46971Y-1842D02*Y-2222D01*
Y-1842D02*X47162Y-1651D01*
X47543D01*
X47733Y-1842D01*
X46971Y-2032D02*X47733D01*
Y-1842D02*Y-2032D01*
X49067Y-1651D02*X49638D01*
X48876Y-1842D02*X49067Y-1651D01*
X48876Y-1842D02*Y-2222D01*
X49067Y-2413D01*
X49638D01*
X50286D02*X50857D01*
X50095Y-2222D02*X50286Y-2413D01*
X50095Y-1842D02*Y-2222D01*
Y-1842D02*X50286Y-1651D01*
X50667D01*
X50857Y-1842D01*
X50095Y-2032D02*X50857D01*
Y-1842D02*Y-2032D01*
X51505Y-1842D02*Y-2413D01*
Y-1842D02*X51695Y-1651D01*
X51886D01*
X52076Y-1842D01*
Y-2413D01*
X51314Y-1651D02*X51505Y-1842D01*
X52724Y-889D02*Y-2222D01*
X52915Y-2413D01*
X52534Y-1460D02*X52915D01*
X53486Y-2413D02*X54058D01*
X53296Y-2222D02*X53486Y-2413D01*
X53296Y-1842D02*Y-2222D01*
Y-1842D02*X53486Y-1651D01*
X53867D01*
X54058Y-1842D01*
X53296Y-2032D02*X54058D01*
Y-1842D02*Y-2032D01*
X54705Y-1842D02*Y-2413D01*
Y-1842D02*X54896Y-1651D01*
X55277D01*
X54515D02*X54705Y-1842D01*
X55734Y-889D02*Y-2222D01*
X55925Y-2413D01*
G54D45*X56306Y-1270D02*Y-1308D01*
G54D44*Y-1842D02*Y-2413D01*
X56877Y-1842D02*Y-2413D01*
Y-1842D02*X57068Y-1651D01*
X57258D01*
X57449Y-1842D01*
Y-2413D01*
X56687Y-1651D02*X56877Y-1842D01*
X58096Y-2413D02*X58668D01*
X57906Y-2222D02*X58096Y-2413D01*
X57906Y-1842D02*Y-2222D01*
Y-1842D02*X58096Y-1651D01*
X58477D01*
X58668Y-1842D01*
X57906Y-2032D02*X58668D01*
Y-1842D02*Y-2032D01*
X59811Y-1842D02*Y-2222D01*
Y-1842D02*X60001Y-1651D01*
X60382D01*
X60573Y-1842D01*
Y-2222D01*
X60382Y-2413D02*X60573Y-2222D01*
X60001Y-2413D02*X60382D01*
X59811Y-2222D02*X60001Y-2413D01*
X61220Y-1080D02*Y-2413D01*
Y-1080D02*X61411Y-889D01*
X61601D01*
X61030Y-1651D02*X61411D01*
X62859Y-889D02*Y-2222D01*
X63049Y-2413D01*
X62668Y-1460D02*X63049D01*
X63430Y-889D02*Y-2413D01*
Y-1842D02*X63621Y-1651D01*
X64002D01*
X64192Y-1842D01*
Y-2413D01*
G54D45*X64649Y-1270D02*Y-1308D01*
G54D44*Y-1842D02*Y-2413D01*
X65221D02*X65792D01*
X65983Y-2222D01*
X65792Y-2032D02*X65983Y-2222D01*
X65221Y-2032D02*X65792D01*
X65030Y-1842D02*X65221Y-2032D01*
X65030Y-1842D02*X65221Y-1651D01*
X65792D01*
X65983Y-1842D01*
X65030Y-2222D02*X65221Y-2413D01*
X67316Y-1842D02*Y-2984D01*
X67126Y-1651D02*X67316Y-1842D01*
X67507Y-1651D01*
X67888D01*
X68078Y-1842D01*
Y-2222D01*
X67888Y-2413D02*X68078Y-2222D01*
X67507Y-2413D02*X67888D01*
X67316Y-2222D02*X67507Y-2413D01*
X69107Y-1651D02*X69298Y-1842D01*
X68726Y-1651D02*X69107D01*
X68536Y-1842D02*X68726Y-1651D01*
X68536Y-1842D02*Y-2222D01*
X68726Y-2413D01*
X69298Y-1651D02*Y-2222D01*
X69488Y-2413D01*
X68726D02*X69107D01*
X69298Y-2222D01*
X70136Y-889D02*Y-2222D01*
X70326Y-2413D01*
X69945Y-1460D02*X70326D01*
X70707Y-889D02*Y-2413D01*
Y-1842D02*X70898Y-1651D01*
X71279D01*
X71469Y-1842D01*
Y-2413D01*
X50990Y87239D02*Y85715D01*
X51486Y87239D02*X51752Y86972D01*
Y85982D01*
X51486Y85715D02*X51752Y85982D01*
X50800Y85715D02*X51486D01*
X50800Y87239D02*X51486D01*
X52781Y86477D02*X52972Y86286D01*
X52400Y86477D02*X52781D01*
X52210Y86286D02*X52400Y86477D01*
X52210Y86286D02*Y85906D01*
X52400Y85715D01*
X52972Y86477D02*Y85906D01*
X53162Y85715D01*
X52400D02*X52781D01*
X52972Y85906D01*
X53810Y87239D02*Y85906D01*
X54000Y85715D01*
X53619Y86668D02*X54000D01*
X54572Y85715D02*X55143D01*
X54381Y85906D02*X54572Y85715D01*
X54381Y86286D02*Y85906D01*
Y86286D02*X54572Y86477D01*
X54953D01*
X55143Y86286D01*
X54381Y86096D02*X55143D01*
Y86286D02*Y86096D01*
X55601Y86668D02*X55791D01*
X55601Y86286D02*X55791D01*
X57696Y87239D02*X57887Y87048D01*
X57125Y87239D02*X57696D01*
X56934Y87048D02*X57125Y87239D01*
X56934Y87048D02*Y86668D01*
X57125Y86477D01*
X57696D01*
X57887Y86286D01*
Y85906D01*
X57696Y85715D02*X57887Y85906D01*
X57125Y85715D02*X57696D01*
X56934Y85906D02*X57125Y85715D01*
X58915Y86477D02*X59106Y86286D01*
X58534Y86477D02*X58915D01*
X58344Y86286D02*X58534Y86477D01*
X58344Y86286D02*Y85906D01*
X58534Y85715D01*
X59106Y86477D02*Y85906D01*
X59296Y85715D01*
X58534D02*X58915D01*
X59106Y85906D01*
X59944Y87239D02*Y85906D01*
X60135Y85715D01*
X59754Y86668D02*X60135D01*
X61468Y87239D02*X61773D01*
Y85906D01*
X61582Y85715D02*X61773Y85906D01*
X61392Y85715D02*X61582D01*
X61201Y85906D02*X61392Y85715D01*
X61201Y86096D02*Y85906D01*
X62230Y86477D02*Y85906D01*
X62421Y85715D01*
X62802D01*
X62992Y85906D01*
Y86477D02*Y85906D01*
X63449Y87239D02*Y85906D01*
X63640Y85715D01*
X64707Y86934D02*X65011Y87239D01*
Y85715D01*
X64707D02*X65278D01*
X66307Y87239D02*X66497Y87048D01*
X65926Y87239D02*X66307D01*
X65735Y87048D02*X65926Y87239D01*
X65735Y87048D02*Y85906D01*
X65926Y85715D01*
X66307Y86553D02*X66497Y86363D01*
X65735Y86553D02*X66307D01*
X65926Y85715D02*X66307D01*
X66497Y85906D01*
Y86363D02*Y85906D01*
X67640Y86934D02*X67945Y87239D01*
Y85715D01*
X67640D02*X68212D01*
X69240Y87239D02*X69431Y87048D01*
X68859Y87239D02*X69240D01*
X68669Y87048D02*X68859Y87239D01*
X68669Y87048D02*Y85906D01*
X68859Y85715D01*
X69240Y86553D02*X69431Y86363D01*
X68669Y86553D02*X69240D01*
X68859Y85715D02*X69240D01*
X69431Y85906D01*
Y86363D02*Y85906D01*
X69888Y86668D02*X70079D01*
X69888Y86286D02*X70079D01*
X70536D02*X71298Y87239D01*
X70536Y86286D02*X71488D01*
X71298Y87239D02*Y85715D01*
X71946Y87048D02*X72136Y87239D01*
X72708D01*
X72898Y87048D01*
Y86668D01*
X71946Y85715D02*X72898Y86668D01*
X71946Y85715D02*X72898D01*
X73355Y86668D02*X73546D01*
X73355Y86286D02*X73546D01*
X74003Y86934D02*X74308Y87239D01*
Y85715D01*
X74003D02*X74574D01*
X75032Y87239D02*X75794D01*
X75032D02*Y86477D01*
X75222Y86668D01*
X75603D01*
X75794Y86477D01*
Y85906D01*
X75603Y85715D02*X75794Y85906D01*
X75222Y85715D02*X75603D01*
X75032Y85906D02*X75222Y85715D01*
X76937Y87048D02*X77127Y87239D01*
X77699D01*
X77889Y87048D01*
Y86668D01*
X76937Y85715D02*X77889Y86668D01*
X76937Y85715D02*X77889D01*
X78346Y85906D02*X78537Y85715D01*
X78346Y87048D02*Y85906D01*
Y87048D02*X78537Y87239D01*
X78918D01*
X79108Y87048D01*
Y85906D01*
X78918Y85715D02*X79108Y85906D01*
X78537Y85715D02*X78918D01*
X78346Y86096D02*X79108Y86858D01*
X79566Y87048D02*X79756Y87239D01*
X80328D01*
X80518Y87048D01*
Y86668D01*
X79566Y85715D02*X80518Y86668D01*
X79566Y85715D02*X80518D01*
X80975Y87048D02*X81166Y87239D01*
X81737D01*
X81928Y87048D01*
Y86668D01*
X80975Y85715D02*X81928Y86668D01*
X80975Y85715D02*X81928D01*
X83071Y87239D02*Y85906D01*
X83261Y85715D01*
X83642D01*
X83833Y85906D01*
Y87239D02*Y85906D01*
X84290Y87239D02*X85052D01*
X84671D02*Y85715D01*
X85776D02*X86271D01*
X85509Y85982D02*X85776Y85715D01*
X85509Y86972D02*Y85982D01*
Y86972D02*X85776Y87239D01*
X86271D01*
X50800Y90668D02*Y89525D01*
Y90668D02*X51067Y91049D01*
X51486D01*
X51752Y90668D01*
Y89525D01*
X50800Y90287D02*X51752D01*
X52210D02*Y89716D01*
X52400Y89525D01*
X52781D01*
X52972Y89716D01*
Y90287D02*Y89716D01*
X53619Y91049D02*Y89716D01*
X53810Y89525D01*
X53429Y90478D02*X53810D01*
X54191Y91049D02*Y89525D01*
Y90096D02*X54381Y90287D01*
X54762D01*
X54953Y90096D01*
Y89525D01*
X55410Y90096D02*Y89716D01*
Y90096D02*X55601Y90287D01*
X55982D01*
X56172Y90096D01*
Y89716D01*
X55982Y89525D02*X56172Y89716D01*
X55601Y89525D02*X55982D01*
X55410Y89716D02*X55601Y89525D01*
X56820Y90096D02*Y89525D01*
Y90096D02*X57010Y90287D01*
X57391D01*
X56629D02*X56820Y90096D01*
X57849Y90478D02*X58039D01*
X57849Y90096D02*X58039D01*
X59182Y91049D02*Y89525D01*
X60135Y91049D02*Y89525D01*
X59182Y90287D02*X60135D01*
X61163D02*X61354Y90096D01*
X60782Y90287D02*X61163D01*
X60592Y90096D02*X60782Y90287D01*
X60592Y90096D02*Y89716D01*
X60782Y89525D01*
X61354Y90287D02*Y89716D01*
X61544Y89525D01*
X60782D02*X61163D01*
X61354Y89716D01*
X62192Y90096D02*Y89525D01*
Y90096D02*X62382Y90287D01*
X62763D01*
X62001D02*X62192Y90096D01*
X63221Y91049D02*Y89525D01*
Y90096D02*X63792Y89525D01*
X63221Y90096D02*X63602Y90478D01*
X64821Y90287D02*X65011Y90096D01*
X64440Y90287D02*X64821D01*
X64249Y90096D02*X64440Y90287D01*
X64249Y90096D02*Y89716D01*
X64440Y89525D01*
X65011Y90287D02*Y89716D01*
X65202Y89525D01*
X64440D02*X64821D01*
X65011Y89716D01*
G54D45*X65659Y90668D02*Y90630D01*
G54D44*Y90096D02*Y89525D01*
X66231Y91049D02*Y89716D01*
X66421Y89525D01*
X66040Y90478D02*X66421D01*
X66802Y90287D02*X67564D01*
X66802Y89525D02*X67564Y90287D01*
X66802Y89525D02*X67564D01*
X68707Y90668D02*Y89525D01*
Y90668D02*X68974Y91049D01*
X69393D01*
X69660Y90668D01*
Y89525D01*
X68707Y90287D02*X69660D01*
X70688D02*X70879Y90096D01*
X70307Y90287D02*X70688D01*
X70117Y90096D02*X70307Y90287D01*
X70117Y90096D02*Y89716D01*
X70307Y89525D01*
X70688D01*
X70879Y89716D01*
X70117Y89144D02*X70307Y88954D01*
X70688D01*
X70879Y89144D01*
Y90287D02*Y89144D01*
G54D45*X71336Y90668D02*Y90630D01*
G54D44*Y90096D02*Y89525D01*
X71907Y90096D02*Y89525D01*
Y90096D02*X72098Y90287D01*
X72479D01*
X71717D02*X71907Y90096D01*
X73127D02*Y89525D01*
Y90096D02*X73317Y90287D01*
X73698D01*
X72936D02*X73127Y90096D01*
X74346Y89525D02*X74917D01*
X74155Y89716D02*X74346Y89525D01*
X74155Y90096D02*Y89716D01*
Y90096D02*X74346Y90287D01*
X74727D01*
X74917Y90096D01*
X74155Y89906D02*X74917D01*
Y90096D02*Y89906D01*
X50800Y94859D02*X51562D01*
X51181D02*Y93335D01*
G54D45*X52019Y94478D02*Y94440D01*
G54D44*Y93906D02*Y93335D01*
X52591Y94859D02*Y93526D01*
X52781Y93335D01*
X52400Y94288D02*X52781D01*
X53162Y94859D02*Y93526D01*
X53353Y93335D01*
X53924D02*X54496D01*
X53734Y93526D02*X53924Y93335D01*
X53734Y93906D02*Y93526D01*
Y93906D02*X53924Y94097D01*
X54305D01*
X54496Y93906D01*
X53734Y93716D02*X54496D01*
Y93906D02*Y93716D01*
X54953Y94288D02*X55143D01*
X54953Y93906D02*X55143D01*
X56286Y93526D02*X56477Y93335D01*
X56286Y94668D02*X56477Y94859D01*
X56286Y94668D02*Y93526D01*
X56934Y94097D02*Y93526D01*
X57125Y93335D01*
X57506D01*
X57696Y93526D01*
Y94097D02*Y93526D01*
X58344Y93906D02*Y93335D01*
Y93906D02*X58534Y94097D01*
X58725D01*
X58915Y93906D01*
Y93335D01*
X58153Y94097D02*X58344Y93906D01*
X59373Y94859D02*Y93335D01*
Y93906D02*X59944Y93335D01*
X59373Y93906D02*X59754Y94288D01*
X60592Y93906D02*Y93335D01*
Y93906D02*X60782Y94097D01*
X60973D01*
X61163Y93906D01*
Y93335D01*
X60401Y94097D02*X60592Y93906D01*
X61620D02*Y93526D01*
Y93906D02*X61811Y94097D01*
X62192D01*
X62382Y93906D01*
Y93526D01*
X62192Y93335D02*X62382Y93526D01*
X61811Y93335D02*X62192D01*
X61620Y93526D02*X61811Y93335D01*
X62840Y94097D02*Y93526D01*
X63030Y93335D01*
X63221D01*
X63411Y93526D01*
Y94097D02*Y93526D01*
X63602Y93335D01*
X63792D01*
X63983Y93526D01*
Y94097D02*Y93526D01*
X64630Y93906D02*Y93335D01*
Y93906D02*X64821Y94097D01*
X65011D01*
X65202Y93906D01*
Y93335D01*
X64440Y94097D02*X64630Y93906D01*
X65659Y94859D02*X65850Y94668D01*
Y93526D01*
X65659Y93335D02*X65850Y93526D01*
X66993Y94097D02*X67755D01*
X68898Y94859D02*Y93335D01*
Y94859D02*X69660D01*
X68898Y94173D02*X69469D01*
X70688Y94097D02*X70879Y93906D01*
X70307Y94097D02*X70688D01*
X70117Y93906D02*X70307Y94097D01*
X70117Y93906D02*Y93526D01*
X70307Y93335D01*
X70879Y94097D02*Y93526D01*
X71069Y93335D01*
X70307D02*X70688D01*
X70879Y93526D01*
X71526Y94859D02*Y93335D01*
Y93526D02*X71717Y93335D01*
X72098D01*
X72288Y93526D01*
Y93906D02*Y93526D01*
X72098Y94097D02*X72288Y93906D01*
X71717Y94097D02*X72098D01*
X71526Y93906D02*X71717Y94097D01*
X72936Y93906D02*Y93335D01*
Y93906D02*X73127Y94097D01*
X73508D01*
X72746D02*X72936Y93906D01*
G54D45*X73965Y94478D02*Y94440D01*
G54D44*Y93906D02*Y93335D01*
X74536Y94097D02*X75108D01*
X74346Y93906D02*X74536Y94097D01*
X74346Y93906D02*Y93526D01*
X74536Y93335D01*
X75108D01*
X76137Y94097D02*X76327Y93906D01*
X75756Y94097D02*X76137D01*
X75565Y93906D02*X75756Y94097D01*
X75565Y93906D02*Y93526D01*
X75756Y93335D01*
X76327Y94097D02*Y93526D01*
X76518Y93335D01*
X75756D02*X76137D01*
X76327Y93526D01*
X77165Y94859D02*Y93526D01*
X77356Y93335D01*
X76975Y94288D02*X77356D01*
G54D45*X77737Y94478D02*Y94440D01*
G54D44*Y93906D02*Y93335D01*
X78118Y93906D02*Y93526D01*
Y93906D02*X78308Y94097D01*
X78689D01*
X78880Y93906D01*
Y93526D01*
X78689Y93335D02*X78880Y93526D01*
X78308Y93335D02*X78689D01*
X78118Y93526D02*X78308Y93335D01*
X79527Y93906D02*Y93335D01*
Y93906D02*X79718Y94097D01*
X79908D01*
X80099Y93906D01*
Y93335D01*
X79337Y94097D02*X79527Y93906D01*
X81432Y94859D02*Y93335D01*
X81928Y94859D02*X82194Y94592D01*
Y93602D01*
X81928Y93335D02*X82194Y93602D01*
X81242Y93335D02*X81928D01*
X81242Y94859D02*X81928D01*
X82842Y93906D02*Y93335D01*
Y93906D02*X83033Y94097D01*
X83414D01*
X82652D02*X82842Y93906D01*
X84442Y94097D02*X84633Y93906D01*
X84061Y94097D02*X84442D01*
X83871Y93906D02*X84061Y94097D01*
X83871Y93906D02*Y93526D01*
X84061Y93335D01*
X84633Y94097D02*Y93526D01*
X84823Y93335D01*
X84061D02*X84442D01*
X84633Y93526D01*
X85281Y94097D02*Y93526D01*
X85471Y93335D01*
X85662D01*
X85852Y93526D01*
Y94097D02*Y93526D01*
X86043Y93335D01*
X86233D01*
X86424Y93526D01*
Y94097D02*Y93526D01*
G54D45*X86881Y94478D02*Y94440D01*
G54D44*Y93906D02*Y93335D01*
X87452Y93906D02*Y93335D01*
Y93906D02*X87643Y94097D01*
X87833D01*
X88024Y93906D01*
Y93335D01*
X87262Y94097D02*X87452Y93906D01*
X89052Y94097D02*X89243Y93906D01*
X88671Y94097D02*X89052D01*
X88481Y93906D02*X88671Y94097D01*
X88481Y93906D02*Y93526D01*
X88671Y93335D01*
X89052D01*
X89243Y93526D01*
X88481Y92954D02*X88671Y92764D01*
X89052D01*
X89243Y92954D01*
Y94097D02*Y92954D01*
M02*
