G04 start of page 2 for group 0 idx 0 *
G04 Title: (unknown), top *
G04 Creator: pcb 4.3.0 *
G04 CreationDate: Sat Jul 16 21:16:51 2022 UTC *
G04 For: harkaitz *
G04 Format: Gerber/RS-274X *
G04 PCB-Dimensions (mm): 100.00 80.00 *
G04 PCB-Coordinate-Origin: lower left *
%MOMM*%
%FSLAX43Y43*%
%LNTOP*%
%ADD18C,0.965*%
%ADD17C,0.711*%
%ADD16C,0.420*%
%ADD15C,1.600*%
%ADD14C,1.524*%
%ADD13C,0.300*%
%ADD12C,0.700*%
%ADD11C,0.002*%
G54D11*G36*
X31000Y27000D02*X22860D01*
Y27955D01*
X24910D01*
X25181Y27971D01*
X25445Y28034D01*
X25696Y28138D01*
X25927Y28280D01*
X26134Y28456D01*
X26310Y28663D01*
X26452Y28894D01*
X26556Y29145D01*
X26583Y29258D01*
X26670D01*
X26741Y29262D01*
X26809Y29279D01*
X26875Y29306D01*
X26935Y29343D01*
X26989Y29389D01*
X27035Y29443D01*
X27072Y29503D01*
X27099Y29569D01*
X27116Y29637D01*
X27121Y29708D01*
X27116Y29779D01*
X27099Y29847D01*
X27072Y29913D01*
X27035Y29973D01*
X26989Y30027D01*
X26935Y30073D01*
X26875Y30110D01*
X26809Y30137D01*
X26741Y30154D01*
X26670Y30158D01*
X26569D01*
X26556Y30215D01*
X26452Y30466D01*
X26310Y30697D01*
X26134Y30904D01*
X25927Y31080D01*
X25696Y31222D01*
X25445Y31326D01*
X25181Y31389D01*
X24910Y31405D01*
X22860D01*
Y32559D01*
X25855Y32564D01*
X25997Y32598D01*
X26131Y32653D01*
X26255Y32729D01*
X26366Y32824D01*
X26461Y32935D01*
X26537Y33059D01*
X26592Y33193D01*
X26626Y33335D01*
X26635Y33480D01*
X26629Y34630D01*
X30290D01*
X30308Y34629D01*
X30378Y34634D01*
X30447Y34651D01*
X30513Y34678D01*
X30573Y34715D01*
X30627Y34761D01*
X30673Y34815D01*
X30710Y34875D01*
X30737Y34941D01*
X30754Y35009D01*
X30759Y35080D01*
X30758Y35098D01*
Y44250D01*
X30759Y44268D01*
X30754Y44338D01*
X30737Y44407D01*
X30710Y44473D01*
X30673Y44533D01*
X30627Y44587D01*
X30573Y44633D01*
X30513Y44670D01*
X30447Y44697D01*
X30378Y44714D01*
X30308Y44719D01*
X30290Y44718D01*
X26342D01*
X26324Y44719D01*
X26253Y44714D01*
X26185Y44697D01*
X26119Y44670D01*
X26059Y44633D01*
X26005Y44587D01*
X25959Y44533D01*
X25922Y44473D01*
X25895Y44407D01*
X25878Y44338D01*
X25873Y44278D01*
X25172Y44277D01*
X25133Y44268D01*
X25096Y44253D01*
X25062Y44232D01*
X25032Y44206D01*
X25006Y44176D01*
X24985Y44141D01*
X24970Y44104D01*
X24960Y44066D01*
X24958Y44026D01*
X24958Y43975D01*
X24385D01*
X24348Y44007D01*
X24303Y44034D01*
X24254Y44055D01*
X24203Y44067D01*
X24150Y44070D01*
X23147Y44067D01*
X23096Y44055D01*
X23051Y44036D01*
X22975Y44101D01*
X22860Y44171D01*
Y46077D01*
X23850Y46078D01*
X23889Y46088D01*
X23926Y46103D01*
X23960Y46124D01*
X23990Y46150D01*
X24016Y46180D01*
X24037Y46214D01*
X24052Y46251D01*
X24062Y46290D01*
X24064Y46330D01*
X24062Y47670D01*
X24052Y47709D01*
X24037Y47746D01*
X24016Y47780D01*
X23990Y47810D01*
X23960Y47836D01*
X23926Y47857D01*
X23889Y47872D01*
X23850Y47882D01*
X23810Y47884D01*
X22860Y47883D01*
Y49077D01*
X23850Y49078D01*
X23889Y49087D01*
X23926Y49103D01*
X23960Y49124D01*
X23990Y49150D01*
X24016Y49180D01*
X24037Y49214D01*
X24052Y49251D01*
X24062Y49290D01*
X24064Y49330D01*
X24062Y50670D01*
X24052Y50708D01*
X24037Y50745D01*
X24016Y50780D01*
X23990Y50810D01*
X23960Y50836D01*
X23926Y50857D01*
X23889Y50872D01*
X23850Y50881D01*
X23810Y50884D01*
X23510Y50883D01*
Y52035D01*
X23512Y52060D01*
X23504Y52162D01*
X23480Y52261D01*
X23441Y52356D01*
X23387Y52443D01*
X23321Y52521D01*
X23243Y52587D01*
X23156Y52641D01*
X23061Y52680D01*
X22962Y52704D01*
X22860Y52712D01*
Y57000D01*
X31000D01*
Y27000D01*
G37*
G36*
X22860Y52712D02*X22835Y52710D01*
X19728D01*
X19728Y53749D01*
X19718Y53787D01*
X19703Y53824D01*
X19683Y53857D01*
X19657Y53887D01*
X19627Y53913D01*
X19594Y53933D01*
X19557Y53948D01*
X19519Y53958D01*
X19480Y53960D01*
X16941Y53958D01*
X16903Y53948D01*
X16866Y53933D01*
X16833Y53913D01*
X16803Y53887D01*
X16777Y53857D01*
X16757Y53824D01*
X16742Y53787D01*
X16732Y53749D01*
X16730Y53710D01*
X16732Y50371D01*
X16742Y50333D01*
X16757Y50296D01*
X16777Y50263D01*
X16803Y50233D01*
X16833Y50207D01*
X16866Y50187D01*
X16903Y50172D01*
X16941Y50162D01*
X16980Y50160D01*
X19519Y50162D01*
X19557Y50172D01*
X19594Y50187D01*
X19627Y50207D01*
X19657Y50233D01*
X19683Y50263D01*
X19703Y50296D01*
X19718Y50333D01*
X19728Y50371D01*
X19730Y50410D01*
X19729Y51410D01*
X22210D01*
Y50882D01*
X21870Y50881D01*
X21831Y50872D01*
X21794Y50857D01*
X21760Y50836D01*
X21730Y50810D01*
X21704Y50780D01*
X21683Y50745D01*
X21668Y50708D01*
X21658Y50670D01*
X21656Y50630D01*
Y50630D01*
X20805D01*
X20780Y50632D01*
X20678Y50624D01*
X20578Y50600D01*
X20484Y50561D01*
X20397Y50507D01*
X20396Y50507D01*
X20319Y50441D01*
X20302Y50421D01*
X17511Y47630D01*
X17118D01*
X17117Y47833D01*
X17108Y47872D01*
X17093Y47908D01*
X17072Y47943D01*
X17046Y47973D01*
X17015Y47999D01*
X16981Y48020D01*
X16944Y48035D01*
X16905Y48044D01*
X16866Y48047D01*
X13575Y48044D01*
X13536Y48035D01*
X13499Y48020D01*
X13465Y47999D01*
X13434Y47973D01*
X13408Y47943D01*
X13387Y47908D01*
X13372Y47872D01*
X13363Y47833D01*
X13360Y47793D01*
X13361Y47630D01*
X12038D01*
X12037Y47833D01*
X12028Y47872D01*
X12013Y47908D01*
X11992Y47943D01*
X11966Y47973D01*
X11935Y47999D01*
X11901Y48020D01*
X11864Y48035D01*
X11825Y48044D01*
X11786Y48047D01*
X8495Y48044D01*
X8456Y48035D01*
X8419Y48020D01*
X8385Y47999D01*
X8354Y47973D01*
X8328Y47943D01*
X8307Y47908D01*
X8292Y47872D01*
X8283Y47833D01*
X8280Y47793D01*
X8283Y46127D01*
X8292Y46088D01*
X8307Y46052D01*
X8328Y46017D01*
X8354Y45987D01*
X8385Y45961D01*
X8419Y45940D01*
X8456Y45925D01*
X8495Y45916D01*
X8534Y45913D01*
X11825Y45916D01*
X11864Y45925D01*
X11901Y45940D01*
X11935Y45961D01*
X11966Y45987D01*
X11992Y46017D01*
X12013Y46052D01*
X12028Y46088D01*
X12037Y46127D01*
X12040Y46167D01*
X12039Y46330D01*
X13362D01*
X13363Y46127D01*
X13372Y46088D01*
X13387Y46052D01*
X13408Y46017D01*
X13434Y45987D01*
X13465Y45961D01*
X13499Y45940D01*
X13536Y45925D01*
X13575Y45916D01*
X13614Y45913D01*
X16905Y45916D01*
X16944Y45925D01*
X16981Y45940D01*
X17015Y45961D01*
X17046Y45987D01*
X17072Y46017D01*
X17093Y46052D01*
X17108Y46088D01*
X17117Y46127D01*
X17120Y46167D01*
X17119Y46330D01*
X17330D01*
Y45283D01*
X17329Y45265D01*
X17334Y45194D01*
Y45194D01*
X17338Y45178D01*
X17351Y45126D01*
X17367Y45087D01*
X17378Y45060D01*
X17392Y45037D01*
X17415Y45000D01*
X17415Y45000D01*
X17461Y44946D01*
X17474Y44934D01*
X18735Y43673D01*
X18720Y43611D01*
X18713Y43525D01*
X18720Y43439D01*
X18740Y43356D01*
X18753Y43325D01*
X17118D01*
X17117Y43515D01*
X17108Y43554D01*
X17093Y43590D01*
X17072Y43625D01*
X17046Y43655D01*
X17015Y43681D01*
X16981Y43702D01*
X16944Y43717D01*
X16905Y43726D01*
X16866Y43729D01*
X13575Y43726D01*
X13536Y43717D01*
X13499Y43702D01*
X13465Y43681D01*
X13434Y43655D01*
X13408Y43625D01*
X13387Y43590D01*
X13372Y43554D01*
X13363Y43515D01*
X13360Y43475D01*
X13363Y41809D01*
X13372Y41770D01*
X13387Y41734D01*
X13408Y41699D01*
X13434Y41669D01*
X13461Y41646D01*
X13434Y41623D01*
X13408Y41593D01*
X13387Y41558D01*
X13372Y41522D01*
X13363Y41483D01*
X13360Y41443D01*
X13363Y39810D01*
X12039D01*
X12040Y39817D01*
X12039Y40180D01*
X12218D01*
X12236Y40179D01*
X12306Y40184D01*
X12375Y40201D01*
X12441Y40228D01*
X12501Y40265D01*
X12555Y40311D01*
X12601Y40365D01*
X12638Y40425D01*
X12665Y40491D01*
X12681Y40559D01*
X12687Y40630D01*
X12686Y40648D01*
Y43907D01*
X12687Y43925D01*
X12681Y43995D01*
X12665Y44064D01*
X12638Y44130D01*
X12601Y44190D01*
X12555Y44244D01*
X12501Y44290D01*
X12441Y44327D01*
X12375Y44354D01*
X12306Y44371D01*
X12236Y44376D01*
X12218Y44375D01*
X7038D01*
X7020Y44376D01*
X6949Y44371D01*
X6881Y44354D01*
X6815Y44327D01*
X6755Y44290D01*
X6701Y44244D01*
X6655Y44190D01*
X6618Y44130D01*
X6591Y44064D01*
X6574Y43995D01*
X6569Y43925D01*
X6570Y43907D01*
Y32190D01*
X6220D01*
X6219Y32562D01*
X6205Y32620D01*
X6183Y32676D01*
X6151Y32727D01*
X6112Y32772D01*
X6067Y32811D01*
X6016Y32843D01*
X5998Y32850D01*
Y33735D01*
X6009Y33736D01*
X6037Y33746D01*
X6064Y33760D01*
X6088Y33778D01*
X6109Y33799D01*
X6126Y33823D01*
X6139Y33850D01*
X6177Y33954D01*
X6203Y34061D01*
X6219Y34170D01*
X6224Y34280D01*
X6219Y34390D01*
X6203Y34499D01*
X6177Y34606D01*
X6140Y34710D01*
X6127Y34737D01*
X6110Y34762D01*
X6088Y34783D01*
X6064Y34801D01*
X6037Y34815D01*
X6009Y34824D01*
X5998Y34826D01*
Y35710D01*
X6016Y35717D01*
X6067Y35749D01*
X6112Y35788D01*
X6151Y35833D01*
X6183Y35884D01*
X6205Y35940D01*
X6219Y35998D01*
X6223Y36058D01*
X6219Y37642D01*
X6205Y37700D01*
X6183Y37756D01*
X6151Y37807D01*
X6112Y37852D01*
X6067Y37891D01*
X6016Y37923D01*
X5998Y37930D01*
Y38675D01*
X6008Y38686D01*
X6102Y38839D01*
X6170Y39006D01*
X6212Y39181D01*
X6223Y39360D01*
X6212Y39539D01*
X6170Y39714D01*
X6102Y39881D01*
X6008Y40034D01*
X5998Y40045D01*
Y40790D01*
X6016Y40797D01*
X6067Y40829D01*
X6112Y40868D01*
X6151Y40913D01*
X6183Y40964D01*
X6205Y41020D01*
X6219Y41078D01*
X6223Y41138D01*
X6219Y42722D01*
X6205Y42780D01*
X6183Y42836D01*
X6151Y42887D01*
X6112Y42932D01*
X6067Y42971D01*
X6016Y43003D01*
X5998Y43010D01*
Y43755D01*
X6008Y43766D01*
X6102Y43919D01*
X6170Y44086D01*
X6212Y44261D01*
X6223Y44440D01*
X6212Y44619D01*
X6170Y44794D01*
X6102Y44961D01*
X6008Y45114D01*
X5998Y45125D01*
Y45870D01*
X6016Y45877D01*
X6067Y45909D01*
X6112Y45948D01*
X6151Y45993D01*
X6183Y46044D01*
X6205Y46100D01*
X6219Y46158D01*
X6223Y46218D01*
X6219Y47802D01*
X6205Y47860D01*
X6183Y47916D01*
X6151Y47967D01*
X6112Y48012D01*
X6067Y48051D01*
X6016Y48083D01*
X5998Y48090D01*
Y48835D01*
X6008Y48846D01*
X6102Y48999D01*
X6170Y49166D01*
X6212Y49341D01*
X6223Y49520D01*
X6212Y49699D01*
X6170Y49874D01*
X6102Y50041D01*
X6008Y50194D01*
X5998Y50205D01*
Y50950D01*
X6016Y50957D01*
X6067Y50989D01*
X6112Y51028D01*
X6151Y51073D01*
X6183Y51124D01*
X6205Y51180D01*
X6219Y51238D01*
X6223Y51298D01*
X6223Y51410D01*
X9932D01*
X9932Y50371D01*
X9942Y50333D01*
X9957Y50296D01*
X9977Y50263D01*
X10003Y50233D01*
X10033Y50207D01*
X10066Y50187D01*
X10103Y50172D01*
X10141Y50162D01*
X10180Y50160D01*
X12719Y50162D01*
X12757Y50172D01*
X12794Y50187D01*
X12827Y50207D01*
X12857Y50233D01*
X12883Y50263D01*
X12903Y50296D01*
X12918Y50333D01*
X12928Y50371D01*
X12930Y50410D01*
X12928Y53749D01*
X12918Y53787D01*
X12903Y53824D01*
X12883Y53857D01*
X12857Y53887D01*
X12827Y53913D01*
X12794Y53933D01*
X12757Y53948D01*
X12719Y53958D01*
X12680Y53960D01*
X10141Y53958D01*
X10103Y53948D01*
X10066Y53933D01*
X10033Y53913D01*
X10003Y53887D01*
X9977Y53857D01*
X9957Y53824D01*
X9942Y53787D01*
X9932Y53749D01*
X9930Y53710D01*
X9931Y52710D01*
X6220D01*
X6219Y52882D01*
X6205Y52940D01*
X6183Y52996D01*
X6151Y53047D01*
X6112Y53092D01*
X6067Y53131D01*
X6016Y53163D01*
X5998Y53170D01*
Y57000D01*
X22860D01*
Y52712D01*
G37*
G36*
Y44171D02*X22848Y44179D01*
X22709Y44236D01*
X22564Y44271D01*
X22415Y44280D01*
X20616Y44271D01*
X20471Y44236D01*
X20332Y44179D01*
X20205Y44101D01*
X20091Y44004D01*
X20074Y43984D01*
X20028Y44012D01*
X19949Y44045D01*
X19866Y44065D01*
X19780Y44070D01*
X19611D01*
X18230Y45451D01*
Y46510D01*
X18241Y46519D01*
X18258Y46538D01*
X21049Y49330D01*
X21658D01*
X21658Y49290D01*
X21668Y49251D01*
X21683Y49214D01*
X21704Y49180D01*
X21730Y49150D01*
X21760Y49124D01*
X21794Y49103D01*
X21831Y49087D01*
X21870Y49078D01*
X21910Y49076D01*
X22860Y49077D01*
Y47883D01*
X21870Y47882D01*
X21831Y47872D01*
X21794Y47857D01*
X21760Y47836D01*
X21730Y47810D01*
X21704Y47780D01*
X21683Y47746D01*
X21668Y47709D01*
X21658Y47670D01*
X21656Y47630D01*
X21658Y46290D01*
X21668Y46251D01*
X21683Y46214D01*
X21704Y46180D01*
X21730Y46150D01*
X21760Y46124D01*
X21794Y46103D01*
X21831Y46088D01*
X21870Y46078D01*
X21910Y46076D01*
X22860Y46077D01*
Y44171D01*
G37*
G36*
Y31405D02*X20810D01*
X20539Y31389D01*
X20275Y31326D01*
X20024Y31222D01*
X20010Y31213D01*
Y31722D01*
X20011Y31740D01*
X20010Y31758D01*
Y32555D01*
X22860Y32559D01*
Y31405D01*
G37*
G36*
Y27000D02*X15240D01*
Y27626D01*
X16905Y27628D01*
X16944Y27637D01*
X16981Y27652D01*
X17015Y27673D01*
X17046Y27699D01*
X17072Y27729D01*
X17093Y27764D01*
X17108Y27800D01*
X17117Y27839D01*
X17120Y27879D01*
X17117Y29545D01*
X17108Y29584D01*
X17093Y29620D01*
X17072Y29655D01*
X17046Y29685D01*
X17015Y29711D01*
X16981Y29732D01*
X16944Y29747D01*
X16905Y29756D01*
X16866Y29759D01*
X15240Y29758D01*
Y31290D01*
X19110D01*
Y29988D01*
X19101Y29951D01*
X19080Y29680D01*
X19101Y29409D01*
X19164Y29145D01*
X19268Y28894D01*
X19410Y28663D01*
X19586Y28456D01*
X19793Y28280D01*
X20024Y28138D01*
X20275Y28034D01*
X20539Y27971D01*
X20810Y27955D01*
X22860D01*
Y27000D01*
G37*
G36*
X15240D02*X8890D01*
Y27837D01*
X9880Y27839D01*
X9919Y27848D01*
X9956Y27863D01*
X9990Y27884D01*
X10020Y27910D01*
X10046Y27940D01*
X10067Y27975D01*
X10082Y28012D01*
X10092Y28050D01*
X10094Y28090D01*
X10092Y29430D01*
X10082Y29469D01*
X10067Y29506D01*
X10046Y29540D01*
X10020Y29570D01*
X9990Y29596D01*
X9956Y29617D01*
X9919Y29633D01*
X9880Y29642D01*
X9840Y29644D01*
X8890Y29643D01*
Y30837D01*
X9880Y30838D01*
X9919Y30848D01*
X9956Y30863D01*
X9990Y30884D01*
X10020Y30910D01*
X10046Y30940D01*
X10067Y30974D01*
X10082Y31011D01*
X10092Y31050D01*
X10094Y31090D01*
X10094Y31290D01*
X15240D01*
Y29758D01*
X13575Y29756D01*
X13536Y29747D01*
X13499Y29732D01*
X13465Y29711D01*
X13434Y29685D01*
X13408Y29655D01*
X13387Y29620D01*
X13372Y29584D01*
X13363Y29545D01*
X13360Y29505D01*
X13363Y27839D01*
X13372Y27800D01*
X13387Y27764D01*
X13408Y27729D01*
X13434Y27699D01*
X13465Y27673D01*
X13499Y27652D01*
X13536Y27637D01*
X13575Y27628D01*
X13614Y27625D01*
X15240Y27626D01*
Y27000D01*
G37*
G36*
X8890D02*X5998D01*
Y28655D01*
X6009Y28656D01*
X6037Y28666D01*
X6064Y28680D01*
X6088Y28698D01*
X6109Y28719D01*
X6126Y28743D01*
X6139Y28770D01*
X6177Y28874D01*
X6203Y28981D01*
X6219Y29090D01*
X6224Y29200D01*
X6219Y29310D01*
X6203Y29419D01*
X6177Y29526D01*
X6140Y29630D01*
X6127Y29657D01*
X6110Y29682D01*
X6088Y29703D01*
X6064Y29721D01*
X6037Y29735D01*
X6009Y29744D01*
X5998Y29746D01*
Y30630D01*
X6016Y30637D01*
X6067Y30669D01*
X6112Y30708D01*
X6151Y30753D01*
X6183Y30804D01*
X6205Y30860D01*
X6219Y30918D01*
X6223Y30978D01*
X6222Y31290D01*
X7002D01*
X7020Y31289D01*
X7038Y31290D01*
X7688D01*
X7688Y31050D01*
X7698Y31011D01*
X7713Y30974D01*
X7734Y30940D01*
X7760Y30910D01*
X7790Y30884D01*
X7824Y30863D01*
X7861Y30848D01*
X7900Y30838D01*
X7940Y30836D01*
X8890Y30837D01*
Y29643D01*
X7900Y29642D01*
X7861Y29633D01*
X7824Y29617D01*
X7790Y29596D01*
X7760Y29570D01*
X7734Y29540D01*
X7713Y29506D01*
X7698Y29469D01*
X7688Y29430D01*
X7686Y29390D01*
X7688Y28050D01*
X7698Y28012D01*
X7713Y27975D01*
X7734Y27940D01*
X7760Y27910D01*
X7790Y27884D01*
X7824Y27863D01*
X7861Y27848D01*
X7900Y27839D01*
X7940Y27836D01*
X8890Y27837D01*
Y27000D01*
G37*
G36*
X5998Y53170D02*X5960Y53185D01*
X5902Y53199D01*
X5842Y53203D01*
X5078Y53201D01*
Y57000D01*
X5998D01*
Y53170D01*
G37*
G36*
Y50205D02*X5891Y50331D01*
X5754Y50448D01*
X5601Y50542D01*
X5434Y50610D01*
X5259Y50652D01*
X5080Y50667D01*
X5078Y50666D01*
Y50919D01*
X5902Y50921D01*
X5960Y50935D01*
X5998Y50950D01*
Y50205D01*
G37*
G36*
Y48090D02*X5960Y48105D01*
X5902Y48119D01*
X5842Y48123D01*
X5730Y48123D01*
Y48578D01*
X5754Y48592D01*
X5891Y48709D01*
X5998Y48835D01*
Y48090D01*
G37*
G36*
Y45125D02*X5891Y45251D01*
X5754Y45368D01*
X5601Y45462D01*
X5434Y45530D01*
X5259Y45572D01*
X5080Y45587D01*
X5078Y45586D01*
Y45839D01*
X5902Y45841D01*
X5960Y45855D01*
X5998Y45870D01*
Y45125D01*
G37*
G36*
Y43010D02*X5960Y43025D01*
X5902Y43039D01*
X5842Y43043D01*
X5730Y43043D01*
Y43498D01*
X5754Y43512D01*
X5891Y43629D01*
X5998Y43755D01*
Y43010D01*
G37*
G36*
Y40045D02*X5891Y40171D01*
X5754Y40288D01*
X5601Y40382D01*
X5434Y40450D01*
X5259Y40492D01*
X5080Y40507D01*
X5078Y40506D01*
Y40759D01*
X5902Y40761D01*
X5960Y40775D01*
X5998Y40790D01*
Y40045D01*
G37*
G36*
Y37930D02*X5960Y37945D01*
X5902Y37959D01*
X5842Y37963D01*
X5730Y37963D01*
Y38418D01*
X5754Y38432D01*
X5891Y38549D01*
X5998Y38675D01*
Y37930D01*
G37*
G36*
Y32850D02*X5960Y32865D01*
X5902Y32879D01*
X5842Y32883D01*
X5078Y32881D01*
Y33136D01*
X5080Y33136D01*
X5190Y33141D01*
X5299Y33157D01*
X5406Y33183D01*
X5510Y33220D01*
X5537Y33233D01*
X5562Y33250D01*
X5583Y33272D01*
X5601Y33296D01*
X5615Y33323D01*
X5624Y33351D01*
X5629Y33381D01*
X5630Y33411D01*
X5625Y33441D01*
X5616Y33470D01*
X5602Y33496D01*
X5585Y33521D01*
X5564Y33542D01*
X5540Y33560D01*
X5513Y33574D01*
X5484Y33584D01*
X5455Y33589D01*
X5424Y33589D01*
X5395Y33584D01*
X5366Y33575D01*
X5297Y33550D01*
X5226Y33532D01*
X5153Y33522D01*
X5080Y33518D01*
X5078Y33518D01*
Y35042D01*
X5080Y35042D01*
X5153Y35038D01*
X5226Y35028D01*
X5297Y35010D01*
X5366Y34986D01*
X5395Y34977D01*
X5424Y34972D01*
X5454Y34972D01*
X5484Y34977D01*
X5512Y34987D01*
X5539Y35000D01*
X5563Y35018D01*
X5584Y35040D01*
X5602Y35064D01*
X5615Y35091D01*
X5624Y35119D01*
X5629Y35149D01*
X5628Y35179D01*
X5624Y35209D01*
X5614Y35237D01*
X5600Y35264D01*
X5582Y35288D01*
X5561Y35309D01*
X5537Y35326D01*
X5510Y35339D01*
X5406Y35377D01*
X5299Y35403D01*
X5190Y35419D01*
X5080Y35424D01*
X5078Y35424D01*
Y35679D01*
X5902Y35681D01*
X5960Y35695D01*
X5998Y35710D01*
Y34826D01*
X5979Y34829D01*
X5949Y34830D01*
X5919Y34825D01*
X5890Y34816D01*
X5864Y34802D01*
X5839Y34785D01*
X5818Y34764D01*
X5800Y34740D01*
X5786Y34713D01*
X5776Y34684D01*
X5771Y34655D01*
X5771Y34624D01*
X5776Y34595D01*
X5785Y34566D01*
X5810Y34497D01*
X5828Y34426D01*
X5838Y34353D01*
X5842Y34280D01*
X5838Y34207D01*
X5828Y34134D01*
X5810Y34063D01*
X5786Y33994D01*
X5777Y33965D01*
X5772Y33936D01*
X5772Y33906D01*
X5777Y33876D01*
X5787Y33848D01*
X5800Y33821D01*
X5818Y33797D01*
X5840Y33776D01*
X5864Y33758D01*
X5891Y33745D01*
X5919Y33736D01*
X5949Y33731D01*
X5979Y33732D01*
X5998Y33735D01*
Y32850D01*
G37*
G36*
Y27000D02*X5078D01*
Y28056D01*
X5080Y28056D01*
X5190Y28061D01*
X5299Y28077D01*
X5406Y28103D01*
X5510Y28140D01*
X5537Y28153D01*
X5562Y28170D01*
X5583Y28192D01*
X5601Y28216D01*
X5615Y28243D01*
X5624Y28271D01*
X5629Y28301D01*
X5630Y28331D01*
X5625Y28361D01*
X5616Y28390D01*
X5602Y28416D01*
X5585Y28441D01*
X5564Y28462D01*
X5540Y28480D01*
X5513Y28494D01*
X5484Y28504D01*
X5455Y28509D01*
X5424Y28509D01*
X5395Y28504D01*
X5366Y28495D01*
X5297Y28470D01*
X5226Y28452D01*
X5153Y28442D01*
X5080Y28438D01*
X5078Y28438D01*
Y29962D01*
X5080Y29962D01*
X5153Y29958D01*
X5226Y29948D01*
X5297Y29930D01*
X5366Y29906D01*
X5395Y29897D01*
X5424Y29892D01*
X5454Y29892D01*
X5484Y29897D01*
X5512Y29907D01*
X5539Y29920D01*
X5563Y29938D01*
X5584Y29960D01*
X5602Y29984D01*
X5615Y30011D01*
X5624Y30039D01*
X5629Y30069D01*
X5628Y30099D01*
X5624Y30129D01*
X5614Y30157D01*
X5600Y30184D01*
X5582Y30208D01*
X5561Y30229D01*
X5537Y30246D01*
X5510Y30259D01*
X5406Y30297D01*
X5299Y30323D01*
X5190Y30339D01*
X5080Y30344D01*
X5078Y30344D01*
Y30599D01*
X5902Y30601D01*
X5960Y30615D01*
X5998Y30630D01*
Y29746D01*
X5979Y29749D01*
X5949Y29750D01*
X5919Y29745D01*
X5890Y29736D01*
X5864Y29722D01*
X5839Y29705D01*
X5818Y29684D01*
X5800Y29660D01*
X5786Y29633D01*
X5776Y29604D01*
X5771Y29575D01*
X5771Y29544D01*
X5776Y29515D01*
X5785Y29486D01*
X5810Y29417D01*
X5828Y29346D01*
X5838Y29273D01*
X5842Y29200D01*
X5838Y29127D01*
X5828Y29054D01*
X5810Y28983D01*
X5786Y28914D01*
X5777Y28885D01*
X5772Y28856D01*
X5772Y28826D01*
X5777Y28796D01*
X5787Y28768D01*
X5800Y28741D01*
X5818Y28717D01*
X5840Y28696D01*
X5864Y28678D01*
X5891Y28665D01*
X5919Y28656D01*
X5949Y28651D01*
X5979Y28652D01*
X5998Y28655D01*
Y27000D01*
G37*
G36*
X4162Y35710D02*X4200Y35695D01*
X4258Y35681D01*
X4318Y35677D01*
X5078Y35679D01*
Y35424D01*
X4970Y35419D01*
X4861Y35403D01*
X4754Y35377D01*
X4650Y35340D01*
X4623Y35327D01*
X4598Y35310D01*
X4577Y35288D01*
X4559Y35264D01*
X4545Y35237D01*
X4536Y35209D01*
X4531Y35179D01*
X4530Y35149D01*
X4535Y35119D01*
X4544Y35090D01*
X4558Y35064D01*
X4575Y35039D01*
X4596Y35018D01*
X4620Y35000D01*
X4647Y34986D01*
X4676Y34976D01*
X4705Y34971D01*
X4736Y34971D01*
X4765Y34976D01*
X4794Y34985D01*
X4863Y35010D01*
X4934Y35028D01*
X5007Y35038D01*
X5078Y35042D01*
Y33518D01*
X5007Y33522D01*
X4934Y33532D01*
X4863Y33550D01*
X4794Y33574D01*
X4765Y33583D01*
X4736Y33588D01*
X4706Y33588D01*
X4676Y33583D01*
X4648Y33573D01*
X4621Y33560D01*
X4597Y33542D01*
X4576Y33520D01*
X4558Y33496D01*
X4545Y33469D01*
X4536Y33441D01*
X4531Y33411D01*
X4532Y33381D01*
X4536Y33351D01*
X4546Y33323D01*
X4560Y33296D01*
X4578Y33272D01*
X4599Y33251D01*
X4623Y33234D01*
X4650Y33221D01*
X4754Y33183D01*
X4861Y33157D01*
X4970Y33141D01*
X5078Y33136D01*
Y32881D01*
X4258Y32879D01*
X4200Y32865D01*
X4162Y32850D01*
Y33734D01*
X4181Y33731D01*
X4211Y33730D01*
X4241Y33735D01*
X4270Y33744D01*
X4296Y33758D01*
X4321Y33775D01*
X4342Y33796D01*
X4360Y33820D01*
X4374Y33847D01*
X4384Y33876D01*
X4389Y33905D01*
X4389Y33936D01*
X4384Y33965D01*
X4375Y33994D01*
X4350Y34063D01*
X4332Y34134D01*
X4322Y34207D01*
X4318Y34280D01*
X4322Y34353D01*
X4332Y34426D01*
X4350Y34497D01*
X4374Y34566D01*
X4383Y34595D01*
X4388Y34624D01*
X4388Y34654D01*
X4383Y34684D01*
X4373Y34712D01*
X4360Y34739D01*
X4342Y34763D01*
X4320Y34784D01*
X4296Y34802D01*
X4269Y34815D01*
X4241Y34824D01*
X4211Y34829D01*
X4181Y34828D01*
X4162Y34825D01*
Y35710D01*
G37*
G36*
Y38675D02*X4269Y38549D01*
X4406Y38432D01*
X4430Y38418D01*
Y37960D01*
X4258Y37959D01*
X4200Y37945D01*
X4162Y37930D01*
Y38675D01*
G37*
G36*
Y40790D02*X4200Y40775D01*
X4258Y40761D01*
X4318Y40757D01*
X5078Y40759D01*
Y40506D01*
X4901Y40492D01*
X4726Y40450D01*
X4559Y40382D01*
X4406Y40288D01*
X4269Y40171D01*
X4162Y40045D01*
Y40790D01*
G37*
G36*
Y43755D02*X4269Y43629D01*
X4406Y43512D01*
X4430Y43498D01*
Y43040D01*
X4258Y43039D01*
X4200Y43025D01*
X4162Y43010D01*
Y43755D01*
G37*
G36*
Y45870D02*X4200Y45855D01*
X4258Y45841D01*
X4318Y45837D01*
X5078Y45839D01*
Y45586D01*
X4901Y45572D01*
X4726Y45530D01*
X4559Y45462D01*
X4406Y45368D01*
X4269Y45251D01*
X4162Y45125D01*
Y45870D01*
G37*
G36*
Y48835D02*X4269Y48709D01*
X4406Y48592D01*
X4430Y48578D01*
Y48120D01*
X4258Y48119D01*
X4200Y48105D01*
X4162Y48090D01*
Y48835D01*
G37*
G36*
Y50950D02*X4200Y50935D01*
X4258Y50921D01*
X4318Y50917D01*
X5078Y50919D01*
Y50666D01*
X4901Y50652D01*
X4726Y50610D01*
X4559Y50542D01*
X4406Y50448D01*
X4269Y50331D01*
X4162Y50205D01*
Y50950D01*
G37*
G36*
Y57000D02*X5078D01*
Y53201D01*
X4258Y53199D01*
X4200Y53185D01*
X4162Y53170D01*
Y57000D01*
G37*
G36*
X5078Y27000D02*X4162D01*
Y28654D01*
X4181Y28651D01*
X4211Y28650D01*
X4241Y28655D01*
X4270Y28664D01*
X4296Y28678D01*
X4321Y28695D01*
X4342Y28716D01*
X4360Y28740D01*
X4374Y28767D01*
X4384Y28796D01*
X4389Y28825D01*
X4389Y28856D01*
X4384Y28885D01*
X4375Y28914D01*
X4350Y28983D01*
X4332Y29054D01*
X4322Y29127D01*
X4318Y29200D01*
X4322Y29273D01*
X4332Y29346D01*
X4350Y29417D01*
X4374Y29486D01*
X4383Y29515D01*
X4388Y29544D01*
X4388Y29574D01*
X4383Y29604D01*
X4373Y29632D01*
X4360Y29659D01*
X4342Y29683D01*
X4320Y29704D01*
X4296Y29722D01*
X4269Y29735D01*
X4241Y29744D01*
X4211Y29749D01*
X4181Y29748D01*
X4162Y29745D01*
Y30630D01*
X4200Y30615D01*
X4258Y30601D01*
X4318Y30597D01*
X5078Y30599D01*
Y30344D01*
X4970Y30339D01*
X4861Y30323D01*
X4754Y30297D01*
X4650Y30260D01*
X4623Y30247D01*
X4598Y30230D01*
X4577Y30208D01*
X4559Y30184D01*
X4545Y30157D01*
X4536Y30129D01*
X4531Y30099D01*
X4530Y30069D01*
X4535Y30039D01*
X4544Y30010D01*
X4558Y29984D01*
X4575Y29959D01*
X4596Y29938D01*
X4620Y29920D01*
X4647Y29906D01*
X4676Y29896D01*
X4705Y29891D01*
X4736Y29891D01*
X4765Y29896D01*
X4794Y29905D01*
X4863Y29930D01*
X4934Y29948D01*
X5007Y29958D01*
X5078Y29962D01*
Y28438D01*
X5007Y28442D01*
X4934Y28452D01*
X4863Y28470D01*
X4794Y28494D01*
X4765Y28503D01*
X4736Y28508D01*
X4706Y28508D01*
X4676Y28503D01*
X4648Y28493D01*
X4621Y28480D01*
X4597Y28462D01*
X4576Y28440D01*
X4558Y28416D01*
X4545Y28389D01*
X4536Y28361D01*
X4531Y28331D01*
X4532Y28301D01*
X4536Y28271D01*
X4546Y28243D01*
X4560Y28216D01*
X4578Y28192D01*
X4599Y28171D01*
X4623Y28154D01*
X4650Y28141D01*
X4754Y28103D01*
X4861Y28077D01*
X4970Y28061D01*
X5078Y28056D01*
Y27000D01*
G37*
G36*
X4162D02*X1000D01*
Y57000D01*
X4162D01*
Y53170D01*
X4144Y53163D01*
X4093Y53131D01*
X4048Y53092D01*
X4009Y53047D01*
X3977Y52996D01*
X3955Y52940D01*
X3941Y52882D01*
X3937Y52822D01*
X3941Y51238D01*
X3955Y51180D01*
X3977Y51124D01*
X4009Y51073D01*
X4048Y51028D01*
X4093Y50989D01*
X4144Y50957D01*
X4162Y50950D01*
Y50205D01*
X4152Y50194D01*
X4058Y50041D01*
X3990Y49874D01*
X3948Y49699D01*
X3933Y49520D01*
X3948Y49341D01*
X3990Y49166D01*
X4058Y48999D01*
X4152Y48846D01*
X4162Y48835D01*
Y48090D01*
X4144Y48083D01*
X4093Y48051D01*
X4048Y48012D01*
X4009Y47967D01*
X3977Y47916D01*
X3955Y47860D01*
X3941Y47802D01*
X3937Y47742D01*
X3941Y46158D01*
X3955Y46100D01*
X3977Y46044D01*
X4009Y45993D01*
X4048Y45948D01*
X4093Y45909D01*
X4144Y45877D01*
X4162Y45870D01*
Y45125D01*
X4152Y45114D01*
X4058Y44961D01*
X3990Y44794D01*
X3948Y44619D01*
X3933Y44440D01*
X3948Y44261D01*
X3990Y44086D01*
X4058Y43919D01*
X4152Y43766D01*
X4162Y43755D01*
Y43010D01*
X4144Y43003D01*
X4093Y42971D01*
X4048Y42932D01*
X4009Y42887D01*
X3977Y42836D01*
X3955Y42780D01*
X3941Y42722D01*
X3937Y42662D01*
X3941Y41078D01*
X3955Y41020D01*
X3977Y40964D01*
X4009Y40913D01*
X4048Y40868D01*
X4093Y40829D01*
X4144Y40797D01*
X4162Y40790D01*
Y40045D01*
X4152Y40034D01*
X4058Y39881D01*
X3990Y39714D01*
X3948Y39539D01*
X3933Y39360D01*
X3948Y39181D01*
X3990Y39006D01*
X4058Y38839D01*
X4152Y38686D01*
X4162Y38675D01*
Y37930D01*
X4144Y37923D01*
X4093Y37891D01*
X4048Y37852D01*
X4009Y37807D01*
X3977Y37756D01*
X3955Y37700D01*
X3941Y37642D01*
X3937Y37582D01*
X3941Y35998D01*
X3955Y35940D01*
X3977Y35884D01*
X4009Y35833D01*
X4048Y35788D01*
X4093Y35749D01*
X4144Y35717D01*
X4162Y35710D01*
Y34825D01*
X4151Y34824D01*
X4123Y34814D01*
X4096Y34800D01*
X4072Y34782D01*
X4051Y34761D01*
X4034Y34737D01*
X4021Y34710D01*
X3983Y34606D01*
X3957Y34499D01*
X3941Y34390D01*
X3936Y34280D01*
X3941Y34170D01*
X3957Y34061D01*
X3983Y33954D01*
X4020Y33850D01*
X4033Y33823D01*
X4050Y33798D01*
X4072Y33777D01*
X4096Y33759D01*
X4123Y33745D01*
X4151Y33736D01*
X4162Y33734D01*
Y32850D01*
X4144Y32843D01*
X4093Y32811D01*
X4048Y32772D01*
X4009Y32727D01*
X3977Y32676D01*
X3955Y32620D01*
X3941Y32562D01*
X3937Y32502D01*
X3941Y30918D01*
X3955Y30860D01*
X3977Y30804D01*
X4009Y30753D01*
X4048Y30708D01*
X4093Y30669D01*
X4144Y30637D01*
X4162Y30630D01*
Y29745D01*
X4151Y29744D01*
X4123Y29734D01*
X4096Y29720D01*
X4072Y29702D01*
X4051Y29681D01*
X4034Y29657D01*
X4021Y29630D01*
X3983Y29526D01*
X3957Y29419D01*
X3941Y29310D01*
X3936Y29200D01*
X3941Y29090D01*
X3957Y28981D01*
X3983Y28874D01*
X4020Y28770D01*
X4033Y28743D01*
X4050Y28718D01*
X4072Y28697D01*
X4096Y28679D01*
X4123Y28665D01*
X4151Y28656D01*
X4162Y28654D01*
Y27000D01*
G37*
G36*
X20250Y44750D02*X23000D01*
Y44080D01*
X22975Y44101D01*
X22848Y44179D01*
X22709Y44236D01*
X22564Y44271D01*
X22415Y44280D01*
X20616Y44271D01*
X20471Y44236D01*
X20332Y44179D01*
X20250Y44129D01*
Y44750D01*
G37*
G36*
Y44129D02*Y45000D01*
X23000D01*
Y44080D01*
X22975Y44101D01*
X22848Y44179D01*
X22709Y44236D01*
X22564Y44271D01*
X22415Y44280D01*
X20616Y44271D01*
X20471Y44236D01*
X20332Y44179D01*
X20250Y44129D01*
G37*
G36*
X18716Y41704D02*X18718Y41312D01*
X18730Y41261D01*
X18735Y41250D01*
X18730Y41239D01*
X18718Y41188D01*
X18715Y41135D01*
X18718Y40662D01*
X18730Y40611D01*
X18735Y40600D01*
X18730Y40589D01*
X18718Y40538D01*
X18715Y40485D01*
X18718Y40012D01*
X18730Y39961D01*
X18751Y39912D01*
X18778Y39867D01*
X18812Y39827D01*
X18852Y39793D01*
X18897Y39766D01*
X18946Y39745D01*
X18997Y39733D01*
X19050Y39730D01*
X20043Y39733D01*
X20094Y39745D01*
X20132Y39761D01*
X20205Y39699D01*
X20332Y39621D01*
X20471Y39564D01*
X20616Y39529D01*
X20765Y39520D01*
X21250Y39522D01*
Y39210D01*
X18978D01*
X18960Y39211D01*
X18889Y39206D01*
X18821Y39189D01*
X18755Y39162D01*
X18695Y39125D01*
X18641Y39079D01*
X18595Y39025D01*
X18558Y38965D01*
X18531Y38899D01*
X18514Y38831D01*
X18509Y38760D01*
X18510Y38742D01*
Y36500D01*
X17118D01*
X17117Y37165D01*
X17108Y37204D01*
X17093Y37240D01*
X17072Y37275D01*
X17046Y37305D01*
X17015Y37331D01*
X16981Y37352D01*
X16944Y37367D01*
X16905Y37376D01*
X16866Y37379D01*
X13575Y37376D01*
X13536Y37367D01*
X13499Y37352D01*
X13465Y37331D01*
X13434Y37305D01*
X13408Y37275D01*
X13387Y37240D01*
X13372Y37204D01*
X13363Y37165D01*
X13360Y37125D01*
X13361Y36500D01*
X12038D01*
X12037Y37165D01*
X12028Y37204D01*
X12013Y37240D01*
X11992Y37275D01*
X11966Y37305D01*
X11935Y37331D01*
X11901Y37352D01*
X11864Y37367D01*
X11825Y37376D01*
X11786Y37379D01*
X10750Y37378D01*
Y38910D01*
X17762D01*
X17780Y38909D01*
X17851Y38914D01*
X17919Y38931D01*
X17985Y38958D01*
X18045Y38995D01*
X18099Y39041D01*
X18145Y39095D01*
X18182Y39155D01*
X18209Y39221D01*
X18226Y39289D01*
X18231Y39360D01*
X18230Y39378D01*
Y41704D01*
X18716D01*
G37*
G36*
X15240Y38910D02*X17762D01*
X17780Y38909D01*
X17851Y38914D01*
X17919Y38931D01*
X17985Y38958D01*
X18045Y38995D01*
X18099Y39041D01*
X18145Y39095D01*
X18182Y39155D01*
X18209Y39221D01*
X18226Y39289D01*
X18231Y39360D01*
X18750D01*
Y39159D01*
X18695Y39125D01*
X18641Y39079D01*
X18595Y39025D01*
X18558Y38965D01*
X18531Y38899D01*
X18514Y38831D01*
X18509Y38760D01*
X18510Y38742D01*
Y33460D01*
X17118D01*
X17117Y33863D01*
X17108Y33902D01*
X17093Y33938D01*
X17072Y33973D01*
X17046Y34003D01*
X17015Y34029D01*
X16981Y34050D01*
X16944Y34065D01*
X16905Y34074D01*
X16866Y34077D01*
X15240Y34076D01*
Y35246D01*
X16905Y35248D01*
X16944Y35257D01*
X16981Y35272D01*
X17015Y35293D01*
X17046Y35319D01*
X17072Y35349D01*
X17093Y35384D01*
X17108Y35420D01*
X17117Y35459D01*
X17120Y35499D01*
X17117Y37165D01*
X17108Y37204D01*
X17093Y37240D01*
X17072Y37275D01*
X17046Y37305D01*
X17015Y37331D01*
X16981Y37352D01*
X16944Y37367D01*
X16905Y37376D01*
X16866Y37379D01*
X15240Y37378D01*
Y38910D01*
G37*
G36*
X8280Y37125D02*X8283Y35459D01*
X8292Y35420D01*
X8307Y35384D01*
X8328Y35349D01*
X8354Y35319D01*
X8385Y35293D01*
X8419Y35272D01*
X8456Y35257D01*
X8495Y35248D01*
X8534Y35245D01*
X10523Y35247D01*
Y33028D01*
X10521Y33010D01*
X10527Y32939D01*
X10544Y32871D01*
X10571Y32805D01*
X10608Y32745D01*
X10654Y32691D01*
X10707Y32645D01*
X10768Y32608D01*
X10833Y32581D01*
X10902Y32564D01*
X10973Y32559D01*
X10990Y32560D01*
X13362D01*
X13363Y32250D01*
X10092D01*
X10092Y32430D01*
X10082Y32469D01*
X10067Y32506D01*
X10046Y32540D01*
X10020Y32570D01*
X9990Y32596D01*
X9956Y32617D01*
X9919Y32632D01*
X9880Y32642D01*
X9840Y32644D01*
X7900Y32642D01*
X7861Y32632D01*
X7824Y32617D01*
X7790Y32596D01*
X7760Y32570D01*
X7734Y32540D01*
X7713Y32506D01*
X7698Y32469D01*
X7688Y32430D01*
X7686Y32390D01*
X7686Y32250D01*
X7620D01*
Y38909D01*
X7638Y38910D01*
X15240D01*
Y37378D01*
X13575Y37376D01*
X13536Y37367D01*
X13499Y37352D01*
X13465Y37331D01*
X13434Y37305D01*
X13408Y37275D01*
X13387Y37240D01*
X13372Y37204D01*
X13363Y37165D01*
X13360Y37125D01*
X13363Y35459D01*
X13372Y35420D01*
X13387Y35384D01*
X13408Y35349D01*
X13434Y35319D01*
X13465Y35293D01*
X13499Y35272D01*
X13536Y35257D01*
X13575Y35248D01*
X13614Y35245D01*
X15240Y35246D01*
Y34076D01*
X13575Y34074D01*
X13536Y34065D01*
X13499Y34050D01*
X13465Y34029D01*
X13434Y34003D01*
X13408Y33973D01*
X13387Y33938D01*
X13372Y33902D01*
X13363Y33863D01*
X13360Y33823D01*
X13361Y33460D01*
X11423D01*
Y35247D01*
X11825Y35248D01*
X11864Y35257D01*
X11901Y35272D01*
X11935Y35293D01*
X11966Y35319D01*
X11992Y35349D01*
X12013Y35384D01*
X12028Y35420D01*
X12037Y35459D01*
X12040Y35499D01*
X12037Y37165D01*
X12028Y37204D01*
X12013Y37240D01*
X11992Y37275D01*
X11966Y37305D01*
X11935Y37331D01*
X11901Y37352D01*
X11864Y37367D01*
X11825Y37376D01*
X11786Y37379D01*
X8495Y37376D01*
X8456Y37367D01*
X8419Y37352D01*
X8385Y37331D01*
X8354Y37305D01*
X8328Y37275D01*
X8307Y37240D01*
X8292Y37204D01*
X8283Y37165D01*
X8280Y37125D01*
G37*
G36*
X18579Y39000D02*X18250D01*
Y40250D01*
X18717D01*
X18718Y40012D01*
X18730Y39961D01*
X18751Y39912D01*
X18778Y39867D01*
X18812Y39827D01*
X18852Y39793D01*
X18897Y39766D01*
X18946Y39745D01*
X18997Y39733D01*
X19050Y39730D01*
X20043Y39733D01*
X20094Y39745D01*
X20132Y39761D01*
X20205Y39699D01*
X20332Y39621D01*
X20471Y39564D01*
X20616Y39529D01*
X20765Y39520D01*
X22564Y39529D01*
X22709Y39564D01*
X22848Y39621D01*
X22975Y39699D01*
X23051Y39764D01*
X23096Y39745D01*
X23147Y39733D01*
X23200Y39730D01*
X23250Y39730D01*
Y39210D01*
X18978D01*
X18960Y39211D01*
X18889Y39206D01*
X18821Y39189D01*
X18755Y39162D01*
X18695Y39125D01*
X18641Y39079D01*
X18595Y39025D01*
X18579Y39000D01*
G37*
G54D12*X18230Y52060D02*X22860D01*
Y49980D01*
X20780D01*
G54D13*X23940Y40275D02*Y38760D01*
G54D12*X22860Y46980D02*X24730D01*
X24750Y47000D01*
X21590Y44410D02*Y40340D01*
Y41250D02*Y39590D01*
X21500Y39500D01*
X21590Y40340D02*X21250Y40000D01*
X19500D01*
X21500Y39500D02*X20500D01*
X19500Y40000D02*X19250Y39750D01*
X18500D01*
G54D13*Y39250D01*
X23675Y42225D02*Y41575D01*
Y43525D02*X26013D01*
X23675Y42875D02*X24425D01*
X25400Y41900D01*
X23675Y41575D02*X24455D01*
X25400Y41900D02*Y41138D01*
Y41900D02*X26924D01*
X24455Y41575D02*X24638Y41392D01*
Y39106D01*
X15453Y42875D02*X15240Y42662D01*
X7620Y39360D02*X17780D01*
Y42154D01*
X15240Y42662D02*Y40630D01*
X23940Y38760D02*X18960D01*
X10160Y42662D02*X8382D01*
X7620Y41900D01*
Y39360D01*
X12236Y43925D02*X7020D01*
G54D12*X5080Y52060D02*X11430D01*
G54D13*X12236Y43925D02*Y40630D01*
X10973D01*
G54D12*X5080Y49520D02*Y46980D01*
Y44440D02*Y41900D01*
X20780Y49980D02*X17780Y46980D01*
X10160D01*
G54D13*X17780D02*Y45265D01*
G54D12*X21590Y44410D02*X21000Y45000D01*
G54D13*X26670Y29708D02*X22888D01*
X22860Y29680D01*
X23368Y34788D02*X22860Y34280D01*
X25710D02*X24910D01*
Y29680D02*X19560D01*
X18960Y33010D02*X16053D01*
X19560Y32605D02*Y31740D01*
Y35530D02*Y29680D01*
X14427Y33010D02*X10973D01*
G54D12*X15240Y28692D02*X12692D01*
X12250Y28250D01*
X8890Y28740D02*X10990D01*
X11000Y28750D01*
G54D13*X10973Y36312D02*Y33010D01*
X25710Y35080D02*Y34280D01*
X24638Y35530D02*X19560D01*
X8590Y31740D02*X7020D01*
X8590D03*
X5080D01*
X19560D02*X9190D01*
X17780Y45265D02*X19520Y43525D01*
Y42875D02*X15453D01*
X17780Y42154D02*X19449D01*
X19520Y42225D01*
X18960Y38760D02*Y33010D01*
X7020Y43925D02*Y31740D01*
G54D12*X5080Y39360D02*Y36820D01*
G54D13*X18500Y39250D02*X17750Y38500D01*
X17428D01*
X15240Y36312D01*
X25400Y41138D02*X26162Y40376D01*
X24638Y39106D02*X28702D01*
Y41036D01*
X28956Y41290D01*
X26013Y43525D02*X26162Y43376D01*
X26924Y41900D02*X28194Y43170D01*
X28956D01*
X26462Y43376D02*X26324D01*
Y44268D02*Y43376D01*
X30308Y44268D02*X26324D01*
X30308D02*Y35080D01*
X25710D01*
X24638Y40249D02*Y35530D01*
G54D11*G36*
X31000Y27000D02*X22860D01*
Y27955D01*
X24910D01*
X25181Y27971D01*
X25445Y28034D01*
X25696Y28138D01*
X25927Y28280D01*
X26134Y28456D01*
X26310Y28663D01*
X26452Y28894D01*
X26556Y29145D01*
X26583Y29258D01*
X26670D01*
X26741Y29262D01*
X26809Y29279D01*
X26875Y29306D01*
X26935Y29343D01*
X26989Y29389D01*
X27035Y29443D01*
X27072Y29503D01*
X27099Y29569D01*
X27116Y29637D01*
X27121Y29708D01*
X27116Y29779D01*
X27099Y29847D01*
X27072Y29913D01*
X27035Y29973D01*
X26989Y30027D01*
X26935Y30073D01*
X26875Y30110D01*
X26809Y30137D01*
X26741Y30154D01*
X26670Y30158D01*
X26569D01*
X26556Y30215D01*
X26452Y30466D01*
X26310Y30697D01*
X26134Y30904D01*
X25927Y31080D01*
X25696Y31222D01*
X25445Y31326D01*
X25181Y31389D01*
X24910Y31405D01*
X22860D01*
Y32559D01*
X25855Y32564D01*
X25997Y32598D01*
X26131Y32653D01*
X26255Y32729D01*
X26366Y32824D01*
X26461Y32935D01*
X26537Y33059D01*
X26592Y33193D01*
X26626Y33335D01*
X26635Y33480D01*
X26629Y34630D01*
X30290D01*
X30308Y34629D01*
X30378Y34634D01*
X30447Y34651D01*
X30513Y34678D01*
X30573Y34715D01*
X30627Y34761D01*
X30673Y34815D01*
X30710Y34875D01*
X30737Y34941D01*
X30754Y35009D01*
X30759Y35080D01*
X30758Y35098D01*
Y44250D01*
X30759Y44268D01*
X30754Y44338D01*
X30737Y44407D01*
X30710Y44473D01*
X30673Y44533D01*
X30627Y44587D01*
X30573Y44633D01*
X30513Y44670D01*
X30447Y44697D01*
X30378Y44714D01*
X30308Y44719D01*
X30290Y44718D01*
X26342D01*
X26324Y44719D01*
X26253Y44714D01*
X26185Y44697D01*
X26119Y44670D01*
X26059Y44633D01*
X26005Y44587D01*
X25959Y44533D01*
X25922Y44473D01*
X25895Y44407D01*
X25878Y44338D01*
X25873Y44278D01*
X25172Y44277D01*
X25133Y44268D01*
X25096Y44253D01*
X25062Y44232D01*
X25032Y44206D01*
X25006Y44176D01*
X24985Y44141D01*
X24970Y44104D01*
X24960Y44066D01*
X24958Y44026D01*
X24958Y43975D01*
X24385D01*
X24348Y44007D01*
X24303Y44034D01*
X24254Y44055D01*
X24203Y44067D01*
X24150Y44070D01*
X23147Y44067D01*
X23096Y44055D01*
X23051Y44036D01*
X22975Y44101D01*
X22860Y44171D01*
Y46077D01*
X23850Y46078D01*
X23889Y46088D01*
X23926Y46103D01*
X23960Y46124D01*
X23990Y46150D01*
X24016Y46180D01*
X24037Y46214D01*
X24052Y46251D01*
X24062Y46290D01*
X24064Y46330D01*
X24062Y47670D01*
X24052Y47709D01*
X24037Y47746D01*
X24016Y47780D01*
X23990Y47810D01*
X23960Y47836D01*
X23926Y47857D01*
X23889Y47872D01*
X23850Y47882D01*
X23810Y47884D01*
X22860Y47883D01*
Y49077D01*
X23850Y49078D01*
X23889Y49087D01*
X23926Y49103D01*
X23960Y49124D01*
X23990Y49150D01*
X24016Y49180D01*
X24037Y49214D01*
X24052Y49251D01*
X24062Y49290D01*
X24064Y49330D01*
X24062Y50670D01*
X24052Y50708D01*
X24037Y50745D01*
X24016Y50780D01*
X23990Y50810D01*
X23960Y50836D01*
X23926Y50857D01*
X23889Y50872D01*
X23850Y50881D01*
X23810Y50884D01*
X23510Y50883D01*
Y52035D01*
X23512Y52060D01*
X23504Y52162D01*
X23480Y52261D01*
X23441Y52356D01*
X23387Y52443D01*
X23321Y52521D01*
X23243Y52587D01*
X23156Y52641D01*
X23061Y52680D01*
X22962Y52704D01*
X22860Y52712D01*
Y57000D01*
X31000D01*
Y27000D01*
G37*
G36*
X22860Y52712D02*X22835Y52710D01*
X19728D01*
X19728Y53749D01*
X19718Y53787D01*
X19703Y53824D01*
X19683Y53857D01*
X19657Y53887D01*
X19627Y53913D01*
X19594Y53933D01*
X19557Y53948D01*
X19519Y53958D01*
X19480Y53960D01*
X16941Y53958D01*
X16903Y53948D01*
X16866Y53933D01*
X16833Y53913D01*
X16803Y53887D01*
X16777Y53857D01*
X16757Y53824D01*
X16742Y53787D01*
X16732Y53749D01*
X16730Y53710D01*
X16732Y50371D01*
X16742Y50333D01*
X16757Y50296D01*
X16777Y50263D01*
X16803Y50233D01*
X16833Y50207D01*
X16866Y50187D01*
X16903Y50172D01*
X16941Y50162D01*
X16980Y50160D01*
X19519Y50162D01*
X19557Y50172D01*
X19594Y50187D01*
X19627Y50207D01*
X19657Y50233D01*
X19683Y50263D01*
X19703Y50296D01*
X19718Y50333D01*
X19728Y50371D01*
X19730Y50410D01*
X19729Y51410D01*
X22210D01*
Y50882D01*
X21870Y50881D01*
X21831Y50872D01*
X21794Y50857D01*
X21760Y50836D01*
X21730Y50810D01*
X21704Y50780D01*
X21683Y50745D01*
X21668Y50708D01*
X21658Y50670D01*
X21656Y50630D01*
Y50630D01*
X20805D01*
X20780Y50632D01*
X20678Y50624D01*
X20578Y50600D01*
X20484Y50561D01*
X20397Y50507D01*
X20396Y50507D01*
X20319Y50441D01*
X20302Y50421D01*
X17511Y47630D01*
X17118D01*
X17117Y47833D01*
X17108Y47872D01*
X17093Y47908D01*
X17072Y47943D01*
X17046Y47973D01*
X17015Y47999D01*
X16981Y48020D01*
X16944Y48035D01*
X16905Y48044D01*
X16866Y48047D01*
X13575Y48044D01*
X13536Y48035D01*
X13499Y48020D01*
X13465Y47999D01*
X13434Y47973D01*
X13408Y47943D01*
X13387Y47908D01*
X13372Y47872D01*
X13363Y47833D01*
X13360Y47793D01*
X13361Y47630D01*
X12038D01*
X12037Y47833D01*
X12028Y47872D01*
X12013Y47908D01*
X11992Y47943D01*
X11966Y47973D01*
X11935Y47999D01*
X11901Y48020D01*
X11864Y48035D01*
X11825Y48044D01*
X11786Y48047D01*
X8495Y48044D01*
X8456Y48035D01*
X8419Y48020D01*
X8385Y47999D01*
X8354Y47973D01*
X8328Y47943D01*
X8307Y47908D01*
X8292Y47872D01*
X8283Y47833D01*
X8280Y47793D01*
X8283Y46127D01*
X8292Y46088D01*
X8307Y46052D01*
X8328Y46017D01*
X8354Y45987D01*
X8385Y45961D01*
X8419Y45940D01*
X8456Y45925D01*
X8495Y45916D01*
X8534Y45913D01*
X11825Y45916D01*
X11864Y45925D01*
X11901Y45940D01*
X11935Y45961D01*
X11966Y45987D01*
X11992Y46017D01*
X12013Y46052D01*
X12028Y46088D01*
X12037Y46127D01*
X12040Y46167D01*
X12039Y46330D01*
X13362D01*
X13363Y46127D01*
X13372Y46088D01*
X13387Y46052D01*
X13408Y46017D01*
X13434Y45987D01*
X13465Y45961D01*
X13499Y45940D01*
X13536Y45925D01*
X13575Y45916D01*
X13614Y45913D01*
X16905Y45916D01*
X16944Y45925D01*
X16981Y45940D01*
X17015Y45961D01*
X17046Y45987D01*
X17072Y46017D01*
X17093Y46052D01*
X17108Y46088D01*
X17117Y46127D01*
X17120Y46167D01*
X17119Y46330D01*
X17330D01*
Y45283D01*
X17329Y45265D01*
X17334Y45194D01*
Y45194D01*
X17338Y45178D01*
X17351Y45126D01*
X17367Y45087D01*
X17378Y45060D01*
X17392Y45037D01*
X17415Y45000D01*
X17415Y45000D01*
X17461Y44946D01*
X17474Y44934D01*
X18735Y43673D01*
X18720Y43611D01*
X18713Y43525D01*
X18720Y43439D01*
X18740Y43356D01*
X18753Y43325D01*
X17118D01*
X17117Y43515D01*
X17108Y43554D01*
X17093Y43590D01*
X17072Y43625D01*
X17046Y43655D01*
X17015Y43681D01*
X16981Y43702D01*
X16944Y43717D01*
X16905Y43726D01*
X16866Y43729D01*
X13575Y43726D01*
X13536Y43717D01*
X13499Y43702D01*
X13465Y43681D01*
X13434Y43655D01*
X13408Y43625D01*
X13387Y43590D01*
X13372Y43554D01*
X13363Y43515D01*
X13360Y43475D01*
X13363Y41809D01*
X13372Y41770D01*
X13387Y41734D01*
X13408Y41699D01*
X13434Y41669D01*
X13461Y41646D01*
X13434Y41623D01*
X13408Y41593D01*
X13387Y41558D01*
X13372Y41522D01*
X13363Y41483D01*
X13360Y41443D01*
X13363Y39810D01*
X12039D01*
X12040Y39817D01*
X12039Y40180D01*
X12218D01*
X12236Y40179D01*
X12306Y40184D01*
X12375Y40201D01*
X12441Y40228D01*
X12501Y40265D01*
X12555Y40311D01*
X12601Y40365D01*
X12638Y40425D01*
X12665Y40491D01*
X12681Y40559D01*
X12687Y40630D01*
X12686Y40648D01*
Y43907D01*
X12687Y43925D01*
X12681Y43995D01*
X12665Y44064D01*
X12638Y44130D01*
X12601Y44190D01*
X12555Y44244D01*
X12501Y44290D01*
X12441Y44327D01*
X12375Y44354D01*
X12306Y44371D01*
X12236Y44376D01*
X12218Y44375D01*
X7038D01*
X7020Y44376D01*
X6949Y44371D01*
X6881Y44354D01*
X6815Y44327D01*
X6755Y44290D01*
X6701Y44244D01*
X6655Y44190D01*
X6618Y44130D01*
X6591Y44064D01*
X6574Y43995D01*
X6569Y43925D01*
X6570Y43907D01*
Y32190D01*
X6220D01*
X6219Y32562D01*
X6205Y32620D01*
X6183Y32676D01*
X6151Y32727D01*
X6112Y32772D01*
X6067Y32811D01*
X6016Y32843D01*
X5998Y32850D01*
Y33735D01*
X6009Y33736D01*
X6037Y33746D01*
X6064Y33760D01*
X6088Y33778D01*
X6109Y33799D01*
X6126Y33823D01*
X6139Y33850D01*
X6177Y33954D01*
X6203Y34061D01*
X6219Y34170D01*
X6224Y34280D01*
X6219Y34390D01*
X6203Y34499D01*
X6177Y34606D01*
X6140Y34710D01*
X6127Y34737D01*
X6110Y34762D01*
X6088Y34783D01*
X6064Y34801D01*
X6037Y34815D01*
X6009Y34824D01*
X5998Y34826D01*
Y35710D01*
X6016Y35717D01*
X6067Y35749D01*
X6112Y35788D01*
X6151Y35833D01*
X6183Y35884D01*
X6205Y35940D01*
X6219Y35998D01*
X6223Y36058D01*
X6219Y37642D01*
X6205Y37700D01*
X6183Y37756D01*
X6151Y37807D01*
X6112Y37852D01*
X6067Y37891D01*
X6016Y37923D01*
X5998Y37930D01*
Y38675D01*
X6008Y38686D01*
X6102Y38839D01*
X6170Y39006D01*
X6212Y39181D01*
X6223Y39360D01*
X6212Y39539D01*
X6170Y39714D01*
X6102Y39881D01*
X6008Y40034D01*
X5998Y40045D01*
Y40790D01*
X6016Y40797D01*
X6067Y40829D01*
X6112Y40868D01*
X6151Y40913D01*
X6183Y40964D01*
X6205Y41020D01*
X6219Y41078D01*
X6223Y41138D01*
X6219Y42722D01*
X6205Y42780D01*
X6183Y42836D01*
X6151Y42887D01*
X6112Y42932D01*
X6067Y42971D01*
X6016Y43003D01*
X5998Y43010D01*
Y43755D01*
X6008Y43766D01*
X6102Y43919D01*
X6170Y44086D01*
X6212Y44261D01*
X6223Y44440D01*
X6212Y44619D01*
X6170Y44794D01*
X6102Y44961D01*
X6008Y45114D01*
X5998Y45125D01*
Y45870D01*
X6016Y45877D01*
X6067Y45909D01*
X6112Y45948D01*
X6151Y45993D01*
X6183Y46044D01*
X6205Y46100D01*
X6219Y46158D01*
X6223Y46218D01*
X6219Y47802D01*
X6205Y47860D01*
X6183Y47916D01*
X6151Y47967D01*
X6112Y48012D01*
X6067Y48051D01*
X6016Y48083D01*
X5998Y48090D01*
Y48835D01*
X6008Y48846D01*
X6102Y48999D01*
X6170Y49166D01*
X6212Y49341D01*
X6223Y49520D01*
X6212Y49699D01*
X6170Y49874D01*
X6102Y50041D01*
X6008Y50194D01*
X5998Y50205D01*
Y50950D01*
X6016Y50957D01*
X6067Y50989D01*
X6112Y51028D01*
X6151Y51073D01*
X6183Y51124D01*
X6205Y51180D01*
X6219Y51238D01*
X6223Y51298D01*
X6223Y51410D01*
X9932D01*
X9932Y50371D01*
X9942Y50333D01*
X9957Y50296D01*
X9977Y50263D01*
X10003Y50233D01*
X10033Y50207D01*
X10066Y50187D01*
X10103Y50172D01*
X10141Y50162D01*
X10180Y50160D01*
X12719Y50162D01*
X12757Y50172D01*
X12794Y50187D01*
X12827Y50207D01*
X12857Y50233D01*
X12883Y50263D01*
X12903Y50296D01*
X12918Y50333D01*
X12928Y50371D01*
X12930Y50410D01*
X12928Y53749D01*
X12918Y53787D01*
X12903Y53824D01*
X12883Y53857D01*
X12857Y53887D01*
X12827Y53913D01*
X12794Y53933D01*
X12757Y53948D01*
X12719Y53958D01*
X12680Y53960D01*
X10141Y53958D01*
X10103Y53948D01*
X10066Y53933D01*
X10033Y53913D01*
X10003Y53887D01*
X9977Y53857D01*
X9957Y53824D01*
X9942Y53787D01*
X9932Y53749D01*
X9930Y53710D01*
X9931Y52710D01*
X6220D01*
X6219Y52882D01*
X6205Y52940D01*
X6183Y52996D01*
X6151Y53047D01*
X6112Y53092D01*
X6067Y53131D01*
X6016Y53163D01*
X5998Y53170D01*
Y57000D01*
X22860D01*
Y52712D01*
G37*
G36*
Y44171D02*X22848Y44179D01*
X22709Y44236D01*
X22564Y44271D01*
X22415Y44280D01*
X20616Y44271D01*
X20471Y44236D01*
X20332Y44179D01*
X20205Y44101D01*
X20091Y44004D01*
X20074Y43984D01*
X20028Y44012D01*
X19949Y44045D01*
X19866Y44065D01*
X19780Y44070D01*
X19611D01*
X18230Y45451D01*
Y46510D01*
X18241Y46519D01*
X18258Y46538D01*
X21049Y49330D01*
X21658D01*
X21658Y49290D01*
X21668Y49251D01*
X21683Y49214D01*
X21704Y49180D01*
X21730Y49150D01*
X21760Y49124D01*
X21794Y49103D01*
X21831Y49087D01*
X21870Y49078D01*
X21910Y49076D01*
X22860Y49077D01*
Y47883D01*
X21870Y47882D01*
X21831Y47872D01*
X21794Y47857D01*
X21760Y47836D01*
X21730Y47810D01*
X21704Y47780D01*
X21683Y47746D01*
X21668Y47709D01*
X21658Y47670D01*
X21656Y47630D01*
X21658Y46290D01*
X21668Y46251D01*
X21683Y46214D01*
X21704Y46180D01*
X21730Y46150D01*
X21760Y46124D01*
X21794Y46103D01*
X21831Y46088D01*
X21870Y46078D01*
X21910Y46076D01*
X22860Y46077D01*
Y44171D01*
G37*
G36*
Y31405D02*X20810D01*
X20539Y31389D01*
X20275Y31326D01*
X20024Y31222D01*
X20010Y31213D01*
Y31722D01*
X20011Y31740D01*
X20010Y31758D01*
Y32555D01*
X22860Y32559D01*
Y31405D01*
G37*
G36*
Y27000D02*X15240D01*
Y27626D01*
X16905Y27628D01*
X16944Y27637D01*
X16981Y27652D01*
X17015Y27673D01*
X17046Y27699D01*
X17072Y27729D01*
X17093Y27764D01*
X17108Y27800D01*
X17117Y27839D01*
X17120Y27879D01*
X17117Y29545D01*
X17108Y29584D01*
X17093Y29620D01*
X17072Y29655D01*
X17046Y29685D01*
X17015Y29711D01*
X16981Y29732D01*
X16944Y29747D01*
X16905Y29756D01*
X16866Y29759D01*
X15240Y29758D01*
Y31290D01*
X19110D01*
Y29988D01*
X19101Y29951D01*
X19080Y29680D01*
X19101Y29409D01*
X19164Y29145D01*
X19268Y28894D01*
X19410Y28663D01*
X19586Y28456D01*
X19793Y28280D01*
X20024Y28138D01*
X20275Y28034D01*
X20539Y27971D01*
X20810Y27955D01*
X22860D01*
Y27000D01*
G37*
G36*
X15240D02*X8890D01*
Y27837D01*
X9880Y27839D01*
X9919Y27848D01*
X9956Y27863D01*
X9990Y27884D01*
X10020Y27910D01*
X10046Y27940D01*
X10067Y27975D01*
X10082Y28012D01*
X10092Y28050D01*
X10094Y28090D01*
X10092Y29430D01*
X10082Y29469D01*
X10067Y29506D01*
X10046Y29540D01*
X10020Y29570D01*
X9990Y29596D01*
X9956Y29617D01*
X9919Y29633D01*
X9880Y29642D01*
X9840Y29644D01*
X8890Y29643D01*
Y30837D01*
X9880Y30838D01*
X9919Y30848D01*
X9956Y30863D01*
X9990Y30884D01*
X10020Y30910D01*
X10046Y30940D01*
X10067Y30974D01*
X10082Y31011D01*
X10092Y31050D01*
X10094Y31090D01*
X10094Y31290D01*
X15240D01*
Y29758D01*
X13575Y29756D01*
X13536Y29747D01*
X13499Y29732D01*
X13465Y29711D01*
X13434Y29685D01*
X13408Y29655D01*
X13387Y29620D01*
X13372Y29584D01*
X13363Y29545D01*
X13360Y29505D01*
X13363Y27839D01*
X13372Y27800D01*
X13387Y27764D01*
X13408Y27729D01*
X13434Y27699D01*
X13465Y27673D01*
X13499Y27652D01*
X13536Y27637D01*
X13575Y27628D01*
X13614Y27625D01*
X15240Y27626D01*
Y27000D01*
G37*
G36*
X8890D02*X5998D01*
Y28655D01*
X6009Y28656D01*
X6037Y28666D01*
X6064Y28680D01*
X6088Y28698D01*
X6109Y28719D01*
X6126Y28743D01*
X6139Y28770D01*
X6177Y28874D01*
X6203Y28981D01*
X6219Y29090D01*
X6224Y29200D01*
X6219Y29310D01*
X6203Y29419D01*
X6177Y29526D01*
X6140Y29630D01*
X6127Y29657D01*
X6110Y29682D01*
X6088Y29703D01*
X6064Y29721D01*
X6037Y29735D01*
X6009Y29744D01*
X5998Y29746D01*
Y30630D01*
X6016Y30637D01*
X6067Y30669D01*
X6112Y30708D01*
X6151Y30753D01*
X6183Y30804D01*
X6205Y30860D01*
X6219Y30918D01*
X6223Y30978D01*
X6222Y31290D01*
X7002D01*
X7020Y31289D01*
X7038Y31290D01*
X7688D01*
X7688Y31050D01*
X7698Y31011D01*
X7713Y30974D01*
X7734Y30940D01*
X7760Y30910D01*
X7790Y30884D01*
X7824Y30863D01*
X7861Y30848D01*
X7900Y30838D01*
X7940Y30836D01*
X8890Y30837D01*
Y29643D01*
X7900Y29642D01*
X7861Y29633D01*
X7824Y29617D01*
X7790Y29596D01*
X7760Y29570D01*
X7734Y29540D01*
X7713Y29506D01*
X7698Y29469D01*
X7688Y29430D01*
X7686Y29390D01*
X7688Y28050D01*
X7698Y28012D01*
X7713Y27975D01*
X7734Y27940D01*
X7760Y27910D01*
X7790Y27884D01*
X7824Y27863D01*
X7861Y27848D01*
X7900Y27839D01*
X7940Y27836D01*
X8890Y27837D01*
Y27000D01*
G37*
G36*
X5998Y53170D02*X5960Y53185D01*
X5902Y53199D01*
X5842Y53203D01*
X5078Y53201D01*
Y57000D01*
X5998D01*
Y53170D01*
G37*
G36*
Y50205D02*X5891Y50331D01*
X5754Y50448D01*
X5601Y50542D01*
X5434Y50610D01*
X5259Y50652D01*
X5080Y50667D01*
X5078Y50666D01*
Y50919D01*
X5902Y50921D01*
X5960Y50935D01*
X5998Y50950D01*
Y50205D01*
G37*
G36*
Y48090D02*X5960Y48105D01*
X5902Y48119D01*
X5842Y48123D01*
X5730Y48123D01*
Y48578D01*
X5754Y48592D01*
X5891Y48709D01*
X5998Y48835D01*
Y48090D01*
G37*
G36*
Y45125D02*X5891Y45251D01*
X5754Y45368D01*
X5601Y45462D01*
X5434Y45530D01*
X5259Y45572D01*
X5080Y45587D01*
X5078Y45586D01*
Y45839D01*
X5902Y45841D01*
X5960Y45855D01*
X5998Y45870D01*
Y45125D01*
G37*
G36*
Y43010D02*X5960Y43025D01*
X5902Y43039D01*
X5842Y43043D01*
X5730Y43043D01*
Y43498D01*
X5754Y43512D01*
X5891Y43629D01*
X5998Y43755D01*
Y43010D01*
G37*
G36*
Y40045D02*X5891Y40171D01*
X5754Y40288D01*
X5601Y40382D01*
X5434Y40450D01*
X5259Y40492D01*
X5080Y40507D01*
X5078Y40506D01*
Y40759D01*
X5902Y40761D01*
X5960Y40775D01*
X5998Y40790D01*
Y40045D01*
G37*
G36*
Y37930D02*X5960Y37945D01*
X5902Y37959D01*
X5842Y37963D01*
X5730Y37963D01*
Y38418D01*
X5754Y38432D01*
X5891Y38549D01*
X5998Y38675D01*
Y37930D01*
G37*
G36*
Y32850D02*X5960Y32865D01*
X5902Y32879D01*
X5842Y32883D01*
X5078Y32881D01*
Y33136D01*
X5080Y33136D01*
X5190Y33141D01*
X5299Y33157D01*
X5406Y33183D01*
X5510Y33220D01*
X5537Y33233D01*
X5562Y33250D01*
X5583Y33272D01*
X5601Y33296D01*
X5615Y33323D01*
X5624Y33351D01*
X5629Y33381D01*
X5630Y33411D01*
X5625Y33441D01*
X5616Y33470D01*
X5602Y33496D01*
X5585Y33521D01*
X5564Y33542D01*
X5540Y33560D01*
X5513Y33574D01*
X5484Y33584D01*
X5455Y33589D01*
X5424Y33589D01*
X5395Y33584D01*
X5366Y33575D01*
X5297Y33550D01*
X5226Y33532D01*
X5153Y33522D01*
X5080Y33518D01*
X5078Y33518D01*
Y35042D01*
X5080Y35042D01*
X5153Y35038D01*
X5226Y35028D01*
X5297Y35010D01*
X5366Y34986D01*
X5395Y34977D01*
X5424Y34972D01*
X5454Y34972D01*
X5484Y34977D01*
X5512Y34987D01*
X5539Y35000D01*
X5563Y35018D01*
X5584Y35040D01*
X5602Y35064D01*
X5615Y35091D01*
X5624Y35119D01*
X5629Y35149D01*
X5628Y35179D01*
X5624Y35209D01*
X5614Y35237D01*
X5600Y35264D01*
X5582Y35288D01*
X5561Y35309D01*
X5537Y35326D01*
X5510Y35339D01*
X5406Y35377D01*
X5299Y35403D01*
X5190Y35419D01*
X5080Y35424D01*
X5078Y35424D01*
Y35679D01*
X5902Y35681D01*
X5960Y35695D01*
X5998Y35710D01*
Y34826D01*
X5979Y34829D01*
X5949Y34830D01*
X5919Y34825D01*
X5890Y34816D01*
X5864Y34802D01*
X5839Y34785D01*
X5818Y34764D01*
X5800Y34740D01*
X5786Y34713D01*
X5776Y34684D01*
X5771Y34655D01*
X5771Y34624D01*
X5776Y34595D01*
X5785Y34566D01*
X5810Y34497D01*
X5828Y34426D01*
X5838Y34353D01*
X5842Y34280D01*
X5838Y34207D01*
X5828Y34134D01*
X5810Y34063D01*
X5786Y33994D01*
X5777Y33965D01*
X5772Y33936D01*
X5772Y33906D01*
X5777Y33876D01*
X5787Y33848D01*
X5800Y33821D01*
X5818Y33797D01*
X5840Y33776D01*
X5864Y33758D01*
X5891Y33745D01*
X5919Y33736D01*
X5949Y33731D01*
X5979Y33732D01*
X5998Y33735D01*
Y32850D01*
G37*
G36*
Y27000D02*X5078D01*
Y28056D01*
X5080Y28056D01*
X5190Y28061D01*
X5299Y28077D01*
X5406Y28103D01*
X5510Y28140D01*
X5537Y28153D01*
X5562Y28170D01*
X5583Y28192D01*
X5601Y28216D01*
X5615Y28243D01*
X5624Y28271D01*
X5629Y28301D01*
X5630Y28331D01*
X5625Y28361D01*
X5616Y28390D01*
X5602Y28416D01*
X5585Y28441D01*
X5564Y28462D01*
X5540Y28480D01*
X5513Y28494D01*
X5484Y28504D01*
X5455Y28509D01*
X5424Y28509D01*
X5395Y28504D01*
X5366Y28495D01*
X5297Y28470D01*
X5226Y28452D01*
X5153Y28442D01*
X5080Y28438D01*
X5078Y28438D01*
Y29962D01*
X5080Y29962D01*
X5153Y29958D01*
X5226Y29948D01*
X5297Y29930D01*
X5366Y29906D01*
X5395Y29897D01*
X5424Y29892D01*
X5454Y29892D01*
X5484Y29897D01*
X5512Y29907D01*
X5539Y29920D01*
X5563Y29938D01*
X5584Y29960D01*
X5602Y29984D01*
X5615Y30011D01*
X5624Y30039D01*
X5629Y30069D01*
X5628Y30099D01*
X5624Y30129D01*
X5614Y30157D01*
X5600Y30184D01*
X5582Y30208D01*
X5561Y30229D01*
X5537Y30246D01*
X5510Y30259D01*
X5406Y30297D01*
X5299Y30323D01*
X5190Y30339D01*
X5080Y30344D01*
X5078Y30344D01*
Y30599D01*
X5902Y30601D01*
X5960Y30615D01*
X5998Y30630D01*
Y29746D01*
X5979Y29749D01*
X5949Y29750D01*
X5919Y29745D01*
X5890Y29736D01*
X5864Y29722D01*
X5839Y29705D01*
X5818Y29684D01*
X5800Y29660D01*
X5786Y29633D01*
X5776Y29604D01*
X5771Y29575D01*
X5771Y29544D01*
X5776Y29515D01*
X5785Y29486D01*
X5810Y29417D01*
X5828Y29346D01*
X5838Y29273D01*
X5842Y29200D01*
X5838Y29127D01*
X5828Y29054D01*
X5810Y28983D01*
X5786Y28914D01*
X5777Y28885D01*
X5772Y28856D01*
X5772Y28826D01*
X5777Y28796D01*
X5787Y28768D01*
X5800Y28741D01*
X5818Y28717D01*
X5840Y28696D01*
X5864Y28678D01*
X5891Y28665D01*
X5919Y28656D01*
X5949Y28651D01*
X5979Y28652D01*
X5998Y28655D01*
Y27000D01*
G37*
G36*
X4162Y35710D02*X4200Y35695D01*
X4258Y35681D01*
X4318Y35677D01*
X5078Y35679D01*
Y35424D01*
X4970Y35419D01*
X4861Y35403D01*
X4754Y35377D01*
X4650Y35340D01*
X4623Y35327D01*
X4598Y35310D01*
X4577Y35288D01*
X4559Y35264D01*
X4545Y35237D01*
X4536Y35209D01*
X4531Y35179D01*
X4530Y35149D01*
X4535Y35119D01*
X4544Y35090D01*
X4558Y35064D01*
X4575Y35039D01*
X4596Y35018D01*
X4620Y35000D01*
X4647Y34986D01*
X4676Y34976D01*
X4705Y34971D01*
X4736Y34971D01*
X4765Y34976D01*
X4794Y34985D01*
X4863Y35010D01*
X4934Y35028D01*
X5007Y35038D01*
X5078Y35042D01*
Y33518D01*
X5007Y33522D01*
X4934Y33532D01*
X4863Y33550D01*
X4794Y33574D01*
X4765Y33583D01*
X4736Y33588D01*
X4706Y33588D01*
X4676Y33583D01*
X4648Y33573D01*
X4621Y33560D01*
X4597Y33542D01*
X4576Y33520D01*
X4558Y33496D01*
X4545Y33469D01*
X4536Y33441D01*
X4531Y33411D01*
X4532Y33381D01*
X4536Y33351D01*
X4546Y33323D01*
X4560Y33296D01*
X4578Y33272D01*
X4599Y33251D01*
X4623Y33234D01*
X4650Y33221D01*
X4754Y33183D01*
X4861Y33157D01*
X4970Y33141D01*
X5078Y33136D01*
Y32881D01*
X4258Y32879D01*
X4200Y32865D01*
X4162Y32850D01*
Y33734D01*
X4181Y33731D01*
X4211Y33730D01*
X4241Y33735D01*
X4270Y33744D01*
X4296Y33758D01*
X4321Y33775D01*
X4342Y33796D01*
X4360Y33820D01*
X4374Y33847D01*
X4384Y33876D01*
X4389Y33905D01*
X4389Y33936D01*
X4384Y33965D01*
X4375Y33994D01*
X4350Y34063D01*
X4332Y34134D01*
X4322Y34207D01*
X4318Y34280D01*
X4322Y34353D01*
X4332Y34426D01*
X4350Y34497D01*
X4374Y34566D01*
X4383Y34595D01*
X4388Y34624D01*
X4388Y34654D01*
X4383Y34684D01*
X4373Y34712D01*
X4360Y34739D01*
X4342Y34763D01*
X4320Y34784D01*
X4296Y34802D01*
X4269Y34815D01*
X4241Y34824D01*
X4211Y34829D01*
X4181Y34828D01*
X4162Y34825D01*
Y35710D01*
G37*
G36*
Y38675D02*X4269Y38549D01*
X4406Y38432D01*
X4430Y38418D01*
Y37960D01*
X4258Y37959D01*
X4200Y37945D01*
X4162Y37930D01*
Y38675D01*
G37*
G36*
Y40790D02*X4200Y40775D01*
X4258Y40761D01*
X4318Y40757D01*
X5078Y40759D01*
Y40506D01*
X4901Y40492D01*
X4726Y40450D01*
X4559Y40382D01*
X4406Y40288D01*
X4269Y40171D01*
X4162Y40045D01*
Y40790D01*
G37*
G36*
Y43755D02*X4269Y43629D01*
X4406Y43512D01*
X4430Y43498D01*
Y43040D01*
X4258Y43039D01*
X4200Y43025D01*
X4162Y43010D01*
Y43755D01*
G37*
G36*
Y45870D02*X4200Y45855D01*
X4258Y45841D01*
X4318Y45837D01*
X5078Y45839D01*
Y45586D01*
X4901Y45572D01*
X4726Y45530D01*
X4559Y45462D01*
X4406Y45368D01*
X4269Y45251D01*
X4162Y45125D01*
Y45870D01*
G37*
G36*
Y48835D02*X4269Y48709D01*
X4406Y48592D01*
X4430Y48578D01*
Y48120D01*
X4258Y48119D01*
X4200Y48105D01*
X4162Y48090D01*
Y48835D01*
G37*
G36*
Y50950D02*X4200Y50935D01*
X4258Y50921D01*
X4318Y50917D01*
X5078Y50919D01*
Y50666D01*
X4901Y50652D01*
X4726Y50610D01*
X4559Y50542D01*
X4406Y50448D01*
X4269Y50331D01*
X4162Y50205D01*
Y50950D01*
G37*
G36*
Y57000D02*X5078D01*
Y53201D01*
X4258Y53199D01*
X4200Y53185D01*
X4162Y53170D01*
Y57000D01*
G37*
G36*
X5078Y27000D02*X4162D01*
Y28654D01*
X4181Y28651D01*
X4211Y28650D01*
X4241Y28655D01*
X4270Y28664D01*
X4296Y28678D01*
X4321Y28695D01*
X4342Y28716D01*
X4360Y28740D01*
X4374Y28767D01*
X4384Y28796D01*
X4389Y28825D01*
X4389Y28856D01*
X4384Y28885D01*
X4375Y28914D01*
X4350Y28983D01*
X4332Y29054D01*
X4322Y29127D01*
X4318Y29200D01*
X4322Y29273D01*
X4332Y29346D01*
X4350Y29417D01*
X4374Y29486D01*
X4383Y29515D01*
X4388Y29544D01*
X4388Y29574D01*
X4383Y29604D01*
X4373Y29632D01*
X4360Y29659D01*
X4342Y29683D01*
X4320Y29704D01*
X4296Y29722D01*
X4269Y29735D01*
X4241Y29744D01*
X4211Y29749D01*
X4181Y29748D01*
X4162Y29745D01*
Y30630D01*
X4200Y30615D01*
X4258Y30601D01*
X4318Y30597D01*
X5078Y30599D01*
Y30344D01*
X4970Y30339D01*
X4861Y30323D01*
X4754Y30297D01*
X4650Y30260D01*
X4623Y30247D01*
X4598Y30230D01*
X4577Y30208D01*
X4559Y30184D01*
X4545Y30157D01*
X4536Y30129D01*
X4531Y30099D01*
X4530Y30069D01*
X4535Y30039D01*
X4544Y30010D01*
X4558Y29984D01*
X4575Y29959D01*
X4596Y29938D01*
X4620Y29920D01*
X4647Y29906D01*
X4676Y29896D01*
X4705Y29891D01*
X4736Y29891D01*
X4765Y29896D01*
X4794Y29905D01*
X4863Y29930D01*
X4934Y29948D01*
X5007Y29958D01*
X5078Y29962D01*
Y28438D01*
X5007Y28442D01*
X4934Y28452D01*
X4863Y28470D01*
X4794Y28494D01*
X4765Y28503D01*
X4736Y28508D01*
X4706Y28508D01*
X4676Y28503D01*
X4648Y28493D01*
X4621Y28480D01*
X4597Y28462D01*
X4576Y28440D01*
X4558Y28416D01*
X4545Y28389D01*
X4536Y28361D01*
X4531Y28331D01*
X4532Y28301D01*
X4536Y28271D01*
X4546Y28243D01*
X4560Y28216D01*
X4578Y28192D01*
X4599Y28171D01*
X4623Y28154D01*
X4650Y28141D01*
X4754Y28103D01*
X4861Y28077D01*
X4970Y28061D01*
X5078Y28056D01*
Y27000D01*
G37*
G36*
X4162D02*X1000D01*
Y57000D01*
X4162D01*
Y53170D01*
X4144Y53163D01*
X4093Y53131D01*
X4048Y53092D01*
X4009Y53047D01*
X3977Y52996D01*
X3955Y52940D01*
X3941Y52882D01*
X3937Y52822D01*
X3941Y51238D01*
X3955Y51180D01*
X3977Y51124D01*
X4009Y51073D01*
X4048Y51028D01*
X4093Y50989D01*
X4144Y50957D01*
X4162Y50950D01*
Y50205D01*
X4152Y50194D01*
X4058Y50041D01*
X3990Y49874D01*
X3948Y49699D01*
X3933Y49520D01*
X3948Y49341D01*
X3990Y49166D01*
X4058Y48999D01*
X4152Y48846D01*
X4162Y48835D01*
Y48090D01*
X4144Y48083D01*
X4093Y48051D01*
X4048Y48012D01*
X4009Y47967D01*
X3977Y47916D01*
X3955Y47860D01*
X3941Y47802D01*
X3937Y47742D01*
X3941Y46158D01*
X3955Y46100D01*
X3977Y46044D01*
X4009Y45993D01*
X4048Y45948D01*
X4093Y45909D01*
X4144Y45877D01*
X4162Y45870D01*
Y45125D01*
X4152Y45114D01*
X4058Y44961D01*
X3990Y44794D01*
X3948Y44619D01*
X3933Y44440D01*
X3948Y44261D01*
X3990Y44086D01*
X4058Y43919D01*
X4152Y43766D01*
X4162Y43755D01*
Y43010D01*
X4144Y43003D01*
X4093Y42971D01*
X4048Y42932D01*
X4009Y42887D01*
X3977Y42836D01*
X3955Y42780D01*
X3941Y42722D01*
X3937Y42662D01*
X3941Y41078D01*
X3955Y41020D01*
X3977Y40964D01*
X4009Y40913D01*
X4048Y40868D01*
X4093Y40829D01*
X4144Y40797D01*
X4162Y40790D01*
Y40045D01*
X4152Y40034D01*
X4058Y39881D01*
X3990Y39714D01*
X3948Y39539D01*
X3933Y39360D01*
X3948Y39181D01*
X3990Y39006D01*
X4058Y38839D01*
X4152Y38686D01*
X4162Y38675D01*
Y37930D01*
X4144Y37923D01*
X4093Y37891D01*
X4048Y37852D01*
X4009Y37807D01*
X3977Y37756D01*
X3955Y37700D01*
X3941Y37642D01*
X3937Y37582D01*
X3941Y35998D01*
X3955Y35940D01*
X3977Y35884D01*
X4009Y35833D01*
X4048Y35788D01*
X4093Y35749D01*
X4144Y35717D01*
X4162Y35710D01*
Y34825D01*
X4151Y34824D01*
X4123Y34814D01*
X4096Y34800D01*
X4072Y34782D01*
X4051Y34761D01*
X4034Y34737D01*
X4021Y34710D01*
X3983Y34606D01*
X3957Y34499D01*
X3941Y34390D01*
X3936Y34280D01*
X3941Y34170D01*
X3957Y34061D01*
X3983Y33954D01*
X4020Y33850D01*
X4033Y33823D01*
X4050Y33798D01*
X4072Y33777D01*
X4096Y33759D01*
X4123Y33745D01*
X4151Y33736D01*
X4162Y33734D01*
Y32850D01*
X4144Y32843D01*
X4093Y32811D01*
X4048Y32772D01*
X4009Y32727D01*
X3977Y32676D01*
X3955Y32620D01*
X3941Y32562D01*
X3937Y32502D01*
X3941Y30918D01*
X3955Y30860D01*
X3977Y30804D01*
X4009Y30753D01*
X4048Y30708D01*
X4093Y30669D01*
X4144Y30637D01*
X4162Y30630D01*
Y29745D01*
X4151Y29744D01*
X4123Y29734D01*
X4096Y29720D01*
X4072Y29702D01*
X4051Y29681D01*
X4034Y29657D01*
X4021Y29630D01*
X3983Y29526D01*
X3957Y29419D01*
X3941Y29310D01*
X3936Y29200D01*
X3941Y29090D01*
X3957Y28981D01*
X3983Y28874D01*
X4020Y28770D01*
X4033Y28743D01*
X4050Y28718D01*
X4072Y28697D01*
X4096Y28679D01*
X4123Y28665D01*
X4151Y28656D01*
X4162Y28654D01*
Y27000D01*
G37*
G36*
X20250Y44750D02*X23000D01*
Y44080D01*
X22975Y44101D01*
X22848Y44179D01*
X22709Y44236D01*
X22564Y44271D01*
X22415Y44280D01*
X20616Y44271D01*
X20471Y44236D01*
X20332Y44179D01*
X20250Y44129D01*
Y44750D01*
G37*
G36*
Y44129D02*Y45000D01*
X23000D01*
Y44080D01*
X22975Y44101D01*
X22848Y44179D01*
X22709Y44236D01*
X22564Y44271D01*
X22415Y44280D01*
X20616Y44271D01*
X20471Y44236D01*
X20332Y44179D01*
X20250Y44129D01*
G37*
G36*
X18716Y41704D02*X18718Y41312D01*
X18730Y41261D01*
X18735Y41250D01*
X18730Y41239D01*
X18718Y41188D01*
X18715Y41135D01*
X18718Y40662D01*
X18730Y40611D01*
X18735Y40600D01*
X18730Y40589D01*
X18718Y40538D01*
X18715Y40485D01*
X18718Y40012D01*
X18730Y39961D01*
X18751Y39912D01*
X18778Y39867D01*
X18812Y39827D01*
X18852Y39793D01*
X18897Y39766D01*
X18946Y39745D01*
X18997Y39733D01*
X19050Y39730D01*
X20043Y39733D01*
X20094Y39745D01*
X20132Y39761D01*
X20205Y39699D01*
X20332Y39621D01*
X20471Y39564D01*
X20616Y39529D01*
X20765Y39520D01*
X21250Y39522D01*
Y39210D01*
X18978D01*
X18960Y39211D01*
X18889Y39206D01*
X18821Y39189D01*
X18755Y39162D01*
X18695Y39125D01*
X18641Y39079D01*
X18595Y39025D01*
X18558Y38965D01*
X18531Y38899D01*
X18514Y38831D01*
X18509Y38760D01*
X18510Y38742D01*
Y36500D01*
X17118D01*
X17117Y37165D01*
X17108Y37204D01*
X17093Y37240D01*
X17072Y37275D01*
X17046Y37305D01*
X17015Y37331D01*
X16981Y37352D01*
X16944Y37367D01*
X16905Y37376D01*
X16866Y37379D01*
X13575Y37376D01*
X13536Y37367D01*
X13499Y37352D01*
X13465Y37331D01*
X13434Y37305D01*
X13408Y37275D01*
X13387Y37240D01*
X13372Y37204D01*
X13363Y37165D01*
X13360Y37125D01*
X13361Y36500D01*
X12038D01*
X12037Y37165D01*
X12028Y37204D01*
X12013Y37240D01*
X11992Y37275D01*
X11966Y37305D01*
X11935Y37331D01*
X11901Y37352D01*
X11864Y37367D01*
X11825Y37376D01*
X11786Y37379D01*
X10750Y37378D01*
Y38910D01*
X17762D01*
X17780Y38909D01*
X17851Y38914D01*
X17919Y38931D01*
X17985Y38958D01*
X18045Y38995D01*
X18099Y39041D01*
X18145Y39095D01*
X18182Y39155D01*
X18209Y39221D01*
X18226Y39289D01*
X18231Y39360D01*
X18230Y39378D01*
Y41704D01*
X18716D01*
G37*
G36*
X15240Y38910D02*X17762D01*
X17780Y38909D01*
X17851Y38914D01*
X17919Y38931D01*
X17985Y38958D01*
X18045Y38995D01*
X18099Y39041D01*
X18145Y39095D01*
X18182Y39155D01*
X18209Y39221D01*
X18226Y39289D01*
X18231Y39360D01*
X18750D01*
Y39159D01*
X18695Y39125D01*
X18641Y39079D01*
X18595Y39025D01*
X18558Y38965D01*
X18531Y38899D01*
X18514Y38831D01*
X18509Y38760D01*
X18510Y38742D01*
Y33460D01*
X17118D01*
X17117Y33863D01*
X17108Y33902D01*
X17093Y33938D01*
X17072Y33973D01*
X17046Y34003D01*
X17015Y34029D01*
X16981Y34050D01*
X16944Y34065D01*
X16905Y34074D01*
X16866Y34077D01*
X15240Y34076D01*
Y35246D01*
X16905Y35248D01*
X16944Y35257D01*
X16981Y35272D01*
X17015Y35293D01*
X17046Y35319D01*
X17072Y35349D01*
X17093Y35384D01*
X17108Y35420D01*
X17117Y35459D01*
X17120Y35499D01*
X17117Y37165D01*
X17108Y37204D01*
X17093Y37240D01*
X17072Y37275D01*
X17046Y37305D01*
X17015Y37331D01*
X16981Y37352D01*
X16944Y37367D01*
X16905Y37376D01*
X16866Y37379D01*
X15240Y37378D01*
Y38910D01*
G37*
G36*
X8280Y37125D02*X8283Y35459D01*
X8292Y35420D01*
X8307Y35384D01*
X8328Y35349D01*
X8354Y35319D01*
X8385Y35293D01*
X8419Y35272D01*
X8456Y35257D01*
X8495Y35248D01*
X8534Y35245D01*
X10523Y35247D01*
Y33028D01*
X10521Y33010D01*
X10527Y32939D01*
X10544Y32871D01*
X10571Y32805D01*
X10608Y32745D01*
X10654Y32691D01*
X10707Y32645D01*
X10768Y32608D01*
X10833Y32581D01*
X10902Y32564D01*
X10973Y32559D01*
X10990Y32560D01*
X13362D01*
X13363Y32250D01*
X10092D01*
X10092Y32430D01*
X10082Y32469D01*
X10067Y32506D01*
X10046Y32540D01*
X10020Y32570D01*
X9990Y32596D01*
X9956Y32617D01*
X9919Y32632D01*
X9880Y32642D01*
X9840Y32644D01*
X7900Y32642D01*
X7861Y32632D01*
X7824Y32617D01*
X7790Y32596D01*
X7760Y32570D01*
X7734Y32540D01*
X7713Y32506D01*
X7698Y32469D01*
X7688Y32430D01*
X7686Y32390D01*
X7686Y32250D01*
X7620D01*
Y38909D01*
X7638Y38910D01*
X15240D01*
Y37378D01*
X13575Y37376D01*
X13536Y37367D01*
X13499Y37352D01*
X13465Y37331D01*
X13434Y37305D01*
X13408Y37275D01*
X13387Y37240D01*
X13372Y37204D01*
X13363Y37165D01*
X13360Y37125D01*
X13363Y35459D01*
X13372Y35420D01*
X13387Y35384D01*
X13408Y35349D01*
X13434Y35319D01*
X13465Y35293D01*
X13499Y35272D01*
X13536Y35257D01*
X13575Y35248D01*
X13614Y35245D01*
X15240Y35246D01*
Y34076D01*
X13575Y34074D01*
X13536Y34065D01*
X13499Y34050D01*
X13465Y34029D01*
X13434Y34003D01*
X13408Y33973D01*
X13387Y33938D01*
X13372Y33902D01*
X13363Y33863D01*
X13360Y33823D01*
X13361Y33460D01*
X11423D01*
Y35247D01*
X11825Y35248D01*
X11864Y35257D01*
X11901Y35272D01*
X11935Y35293D01*
X11966Y35319D01*
X11992Y35349D01*
X12013Y35384D01*
X12028Y35420D01*
X12037Y35459D01*
X12040Y35499D01*
X12037Y37165D01*
X12028Y37204D01*
X12013Y37240D01*
X11992Y37275D01*
X11966Y37305D01*
X11935Y37331D01*
X11901Y37352D01*
X11864Y37367D01*
X11825Y37376D01*
X11786Y37379D01*
X8495Y37376D01*
X8456Y37367D01*
X8419Y37352D01*
X8385Y37331D01*
X8354Y37305D01*
X8328Y37275D01*
X8307Y37240D01*
X8292Y37204D01*
X8283Y37165D01*
X8280Y37125D01*
G37*
G36*
X18579Y39000D02*X18250D01*
Y40250D01*
X18717D01*
X18718Y40012D01*
X18730Y39961D01*
X18751Y39912D01*
X18778Y39867D01*
X18812Y39827D01*
X18852Y39793D01*
X18897Y39766D01*
X18946Y39745D01*
X18997Y39733D01*
X19050Y39730D01*
X20043Y39733D01*
X20094Y39745D01*
X20132Y39761D01*
X20205Y39699D01*
X20332Y39621D01*
X20471Y39564D01*
X20616Y39529D01*
X20765Y39520D01*
X22564Y39529D01*
X22709Y39564D01*
X22848Y39621D01*
X22975Y39699D01*
X23051Y39764D01*
X23096Y39745D01*
X23147Y39733D01*
X23200Y39730D01*
X23250Y39730D01*
Y39210D01*
X18978D01*
X18960Y39211D01*
X18889Y39206D01*
X18821Y39189D01*
X18755Y39162D01*
X18695Y39125D01*
X18641Y39079D01*
X18595Y39025D01*
X18579Y39000D01*
G37*
G36*
X4318Y42662D02*Y41138D01*
X5842D01*
Y42662D01*
X4318D01*
G37*
G54D14*X5080Y39360D03*
G54D11*G36*
X4318Y47742D02*Y46218D01*
X5842D01*
Y47742D01*
X4318D01*
G37*
G54D14*X5080Y44440D03*
G54D11*G36*
X4318Y32502D02*Y30978D01*
X5842D01*
Y32502D01*
X4318D01*
G37*
G54D14*X5080Y29200D03*
G54D11*G36*
X4318Y37582D02*Y36058D01*
X5842D01*
Y37582D01*
X4318D01*
G37*
G54D14*X5080Y34280D03*
G54D11*G36*
X4318Y52822D02*Y51298D01*
X5842D01*
Y52822D01*
X4318D01*
G37*
G54D14*X5080Y49520D03*
G54D11*G36*
X7940Y29390D02*Y28090D01*
X9840D01*
Y29390D01*
X7940D01*
G37*
G36*
Y32390D02*Y31090D01*
X9840D01*
Y32390D01*
X7940D01*
G37*
G36*
X8534Y37125D02*Y35499D01*
X11786D01*
Y37125D01*
X8534D01*
G37*
G36*
X13614Y29505D02*Y27879D01*
X16866D01*
Y29505D01*
X13614D01*
G37*
G36*
Y33823D02*Y32197D01*
X16866D01*
Y33823D01*
X13614D01*
G37*
G36*
Y37125D02*Y35499D01*
X16866D01*
Y37125D01*
X13614D01*
G37*
G54D15*X20810Y29680D02*X24910D01*
G54D11*G36*
X20010Y35080D02*Y33480D01*
X25710D01*
Y35080D01*
X20010D01*
G37*
G36*
X19050Y40485D02*Y40065D01*
X19990D01*
Y40485D01*
X19050D01*
G37*
G36*
X23200D02*Y40065D01*
X24150D01*
Y40485D01*
X23200D01*
G37*
G54D16*X19260Y43525D02*X19780D01*
G54D11*G36*
X19050Y43085D02*Y42665D01*
X19990D01*
Y43085D01*
X19050D01*
G37*
G36*
Y42435D02*Y42015D01*
X19990D01*
Y42435D01*
X19050D01*
G37*
G36*
Y41785D02*Y41365D01*
X19990D01*
Y41785D01*
X19050D01*
G37*
G36*
Y41135D02*Y40715D01*
X19990D01*
Y41135D01*
X19050D01*
G37*
G36*
X22415Y43330D02*X20765D01*
Y40470D01*
X22415D01*
Y43330D01*
G37*
G36*
X23200Y41135D02*Y40715D01*
X24150D01*
Y41135D01*
X23200D01*
G37*
G36*
X25212Y41026D02*Y39726D01*
X27112D01*
Y41026D01*
X25212D01*
G37*
G36*
X28054Y41938D02*Y40643D01*
X29858D01*
Y41938D01*
X28054D01*
G37*
G36*
X23200Y41785D02*Y41365D01*
X24150D01*
Y41785D01*
X23200D01*
G37*
G36*
Y42435D02*Y42015D01*
X24150D01*
Y42435D01*
X23200D01*
G37*
G36*
X25212Y44026D02*Y42726D01*
X27112D01*
Y44026D01*
X25212D01*
G37*
G36*
X28054Y43818D02*Y42522D01*
X29858D01*
Y43818D01*
X28054D01*
G37*
G36*
X23200Y43085D02*Y42665D01*
X24150D01*
Y43085D01*
X23200D01*
G37*
G36*
Y43735D02*Y43315D01*
X24150D01*
Y43735D01*
X23200D01*
G37*
G36*
X21910Y47630D02*Y46330D01*
X23810D01*
Y47630D01*
X21910D01*
G37*
G36*
Y50630D02*Y49330D01*
X23810D01*
Y50630D01*
X21910D01*
G37*
G36*
X8534Y41443D02*Y39817D01*
X11786D01*
Y41443D01*
X8534D01*
G37*
G36*
Y43475D02*Y41849D01*
X11786D01*
Y43475D01*
X8534D01*
G37*
G36*
Y47793D02*Y46167D01*
X11786D01*
Y47793D01*
X8534D01*
G37*
G36*
X13614Y41443D02*Y39817D01*
X16866D01*
Y41443D01*
X13614D01*
G37*
G36*
Y43475D02*Y41849D01*
X16866D01*
Y43475D01*
X13614D01*
G37*
G36*
Y47793D02*Y46167D01*
X16866D01*
Y47793D01*
X13614D01*
G37*
G36*
X12680Y53710D02*X10180D01*
Y50410D01*
X12680D01*
Y53710D01*
G37*
G36*
X19480D02*X16980D01*
Y50410D01*
X19480D01*
Y53710D01*
G37*
G54D17*G54D18*G54D17*M02*
