G04 start of page 9 for group -4015 idx -4015 *
G04 Title: (unknown), toppaste *
G04 Creator: pcb 4.3.0 *
G04 CreationDate: Wed Sep 14 15:56:16 2022 UTC *
G04 For: harkaitz *
G04 Format: Gerber/RS-274X *
G04 PCB-Dimensions (mm): 100.00 80.00 *
G04 PCB-Coordinate-Origin: lower left *
%MOMM*%
%FSLAX43Y43*%
%LNTOPPASTE*%
%ADD42C,1.600*%
%ADD41C,0.002*%
%ADD40C,0.420*%
G54D40*X19260Y43525D02*X19780D01*
G54D41*G36*
X19050Y43085D02*Y42665D01*
X19990D01*
Y43085D01*
X19050D01*
G37*
G36*
Y42435D02*Y42015D01*
X19990D01*
Y42435D01*
X19050D01*
G37*
G36*
Y41785D02*Y41365D01*
X19990D01*
Y41785D01*
X19050D01*
G37*
G36*
Y41135D02*Y40715D01*
X19990D01*
Y41135D01*
X19050D01*
G37*
G36*
Y40485D02*Y40065D01*
X19990D01*
Y40485D01*
X19050D01*
G37*
G36*
X23200D02*Y40065D01*
X24150D01*
Y40485D01*
X23200D01*
G37*
G36*
Y41135D02*Y40715D01*
X24150D01*
Y41135D01*
X23200D01*
G37*
G36*
Y41785D02*Y41365D01*
X24150D01*
Y41785D01*
X23200D01*
G37*
G36*
Y42435D02*Y42015D01*
X24150D01*
Y42435D01*
X23200D01*
G37*
G36*
Y43085D02*Y42665D01*
X24150D01*
Y43085D01*
X23200D01*
G37*
G36*
Y43735D02*Y43315D01*
X24150D01*
Y43735D01*
X23200D01*
G37*
G36*
X22415Y43330D02*X20765D01*
Y40470D01*
X22415D01*
Y43330D01*
G37*
G36*
X21910Y47630D02*Y46330D01*
X23810D01*
Y47630D01*
X21910D01*
G37*
G36*
Y50630D02*Y49330D01*
X23810D01*
Y50630D01*
X21910D01*
G37*
G36*
X7940Y29390D02*Y28090D01*
X9840D01*
Y29390D01*
X7940D01*
G37*
G36*
Y32390D02*Y31090D01*
X9840D01*
Y32390D01*
X7940D01*
G37*
G36*
X25212Y41026D02*Y39726D01*
X27112D01*
Y41026D01*
X25212D01*
G37*
G36*
Y44026D02*Y42726D01*
X27112D01*
Y44026D01*
X25212D01*
G37*
G36*
X8534Y37125D02*Y35499D01*
X11786D01*
Y37125D01*
X8534D01*
G37*
G36*
Y41443D02*Y39817D01*
X11786D01*
Y41443D01*
X8534D01*
G37*
G36*
X13614Y29505D02*Y27879D01*
X16866D01*
Y29505D01*
X13614D01*
G37*
G36*
Y33823D02*Y32197D01*
X16866D01*
Y33823D01*
X13614D01*
G37*
G36*
X8534Y43475D02*Y41849D01*
X11786D01*
Y43475D01*
X8534D01*
G37*
G36*
Y47793D02*Y46167D01*
X11786D01*
Y47793D01*
X8534D01*
G37*
G36*
X13614Y37125D02*Y35499D01*
X16866D01*
Y37125D01*
X13614D01*
G37*
G36*
Y41443D02*Y39817D01*
X16866D01*
Y41443D01*
X13614D01*
G37*
G36*
Y43475D02*Y41849D01*
X16866D01*
Y43475D01*
X13614D01*
G37*
G36*
Y47793D02*Y46167D01*
X16866D01*
Y47793D01*
X13614D01*
G37*
G36*
X12680Y53710D02*X10180D01*
Y50410D01*
X12680D01*
Y53710D01*
G37*
G36*
X19480D02*X16980D01*
Y50410D01*
X19480D01*
Y53710D01*
G37*
G54D42*X20810Y29680D02*X24910D01*
G54D41*G36*
X20010Y35080D02*Y33480D01*
X25710D01*
Y35080D01*
X20010D01*
G37*
G36*
X28054Y41938D02*Y40643D01*
X29858D01*
Y41938D01*
X28054D01*
G37*
G36*
Y43818D02*Y42522D01*
X29858D01*
Y43818D01*
X28054D01*
G37*
M02*
